<?xml version="1.0" standalone="no"?>
<!DOCTYPE svg PUBLIC "-//W3C//DTD SVG 1.1//EN" "http://www.w3.org/Graphics/SVG/1.1/DTD/svg11.dtd">
<svg width="156" height="156" version="1.1" xmlns="http://www.w3.org/2000/svg">
 <desc>Zint Generated Symbol</desc>
 <g id="barcode" fill="#A8B1FF">
  <rect x="0" y="0" width="156" height="156" fill="#FFFFFF"/>
  <path d="M0 0h6v18h-6ZM12 0h6v12h-6ZM24 0h6v12h-6ZM36 0h6v6h-6ZM48 0h6v6h-6ZM60 0h6v6h-6ZM72 0h6v6h-6ZM84 0h6v6h-6ZM96 0h6v12h-6ZM108 0h6v6h-6ZM120 0h6v6h-6ZM132 0h6v6h-6ZM144 0h6v6h-6ZM48 6h36v6h-36ZM108 6h18v6h-18ZM138 6h6v6h-6ZM150 6h6v6h-6ZM30 12h18v6h-18ZM60 12h18v6h-18ZM84 12h30v6h-30ZM126 12h12v6h-12ZM0 18h18v6h-18ZM42 18h6v6h-6ZM60 18h6v6h-6ZM78 18h12v6h-12ZM102 18h12v6h-12ZM132 18h6v12h-6ZM144 18h12v6h-12ZM0 24h12v12h-12ZM18 24h6v12h-6ZM30 24h6v6h-6ZM48 24h6v6h-6ZM72 24h36v6h-36ZM114 24h12v6h-12ZM42 30h6v6h-6ZM60 30h42v6h-42ZM126 30h12v6h-12ZM150 30h6v6h-6ZM0 36h18v6h-18ZM30 36h12v6h-12ZM48 36h18v6h-18ZM72 36h6v6h-6ZM90 36h6v12h-6ZM102 36h6v6h-6ZM114 36h6v6h-6ZM126 36h6v12h-6ZM144 36h6v6h-6ZM0 42h6v6h-6ZM24 42h6v6h-6ZM42 42h6v12h-6ZM54 42h6v6h-6ZM108 42h12v6h-12ZM138 42h18v6h-18ZM0 48h24v6h-24ZM54 48h30v6h-30ZM90 48h24v6h-24ZM120 48h30v6h-30ZM0 54h6v12h-6ZM18 54h6v6h-6ZM30 54h6v6h-6ZM42 54h36v6h-36ZM108 54h6v12h-6ZM150 54h6v6h-6ZM36 60h6v6h-6ZM54 60h12v6h-12ZM78 60h12v6h-12ZM96 60h6v6h-6ZM126 60h6v6h-6ZM138 60h6v6h-6ZM0 66h18v6h-18ZM42 66h6v6h-6ZM78 66h6v6h-6ZM138 66h18v6h-18ZM0 72h6v24h-6ZM12 72h6v6h-6ZM30 72h6v6h-6ZM54 72h12v6h-12ZM72 72h6v6h-6ZM96 72h6v6h-6ZM108 72h30v6h-30ZM36 78h6v6h-6ZM48 78h6v6h-6ZM78 78h6v6h-6ZM90 78h6v6h-6ZM102 78h6v6h-6ZM132 78h24v6h-24ZM12 84h42v6h-42ZM72 84h60v6h-60ZM18 90h18v6h-18ZM42 90h12v6h-12ZM66 90h6v6h-6ZM78 90h6v6h-6ZM108 90h18v6h-18ZM144 90h12v6h-12ZM0 96h24v6h-24ZM30 96h6v6h-6ZM48 96h18v6h-18ZM72 96h18v12h-18ZM120 96h12v6h-12ZM0 102h12v6h-12ZM18 102h42v6h-42ZM108 102h12v6h-12ZM126 102h6v6h-6ZM150 102h6v6h-6ZM0 108h6v36h-6ZM18 108h30v6h-30ZM54 108h36v6h-36ZM102 108h6v6h-6ZM120 108h6v6h-6ZM132 108h6v6h-6ZM30 114h6v6h-6ZM42 114h6v6h-6ZM54 114h6v6h-6ZM66 114h12v6h-12ZM90 114h42v6h-42ZM150 114h6v6h-6ZM18 120h12v6h-12ZM42 120h18v6h-18ZM66 120h6v6h-6ZM78 120h6v6h-6ZM90 120h6v6h-6ZM102 120h18v6h-18ZM126 120h6v6h-6ZM138 120h12v6h-12ZM12 126h6v6h-6ZM24 126h24v6h-24ZM54 126h12v6h-12ZM90 126h12v6h-12ZM108 126h36v6h-36ZM150 126h6v6h-6ZM18 132h18v6h-18ZM60 132h6v6h-6ZM72 132h18v6h-18ZM102 132h12v6h-12ZM126 132h6v6h-6ZM12 138h6v6h-6ZM24 138h12v6h-12ZM54 138h12v12h-12ZM72 138h24v6h-24ZM102 138h6v6h-6ZM114 138h30v6h-30ZM150 138h6v6h-6ZM0 144h18v6h-18ZM30 144h6v6h-6ZM42 144h6v6h-6ZM78 144h6v6h-6ZM96 144h18v6h-18ZM120 144h6v6h-6ZM138 144h6v6h-6ZM0 150h156v6h-156Z"/>
 </g>
</svg>
