<?xml version="1.0" standalone="no"?>
<!DOCTYPE svg PUBLIC "-//W3C//DTD SVG 1.1//EN"
   "http://www.w3.org/Graphics/SVG/1.1/DTD/svg11.dtd">
<svg width="79" height="59" version="1.1"
   xmlns="http://www.w3.org/2000/svg">
   <desc>54321
   </desc>

   <g id="barcode" fill="#000000">
      <rect x="0" y="0" width="79" height="59" fill="#FFF000" />
      <rect x="0.00" y="0.00" width="2.00" height="50.00" />
      <rect x="3.00" y="0.00" width="1.00" height="50.00" />
      <rect x="6.00" y="0.00" width="3.00" height="50.00" />
      <rect x="11.00" y="0.00" width="3.00" height="50.00" />
      <rect x="15.00" y="0.00" width="1.00" height="50.00" />
      <rect x="17.00" y="0.00" width="2.00" height="50.00" />
      <rect x="22.00" y="0.00" width="2.00" height="50.00" />
      <rect x="27.00" y="0.00" width="2.00" height="50.00" />
      <rect x="30.00" y="0.00" width="2.00" height="50.00" />
      <rect x="33.00" y="0.00" width="1.00" height="50.00" />
      <rect x="35.00" y="0.00" width="4.00" height="50.00" />
      <rect x="40.00" y="0.00" width="3.00" height="50.00" />
      <rect x="44.00" y="0.00" width="1.00" height="50.00" />
      <rect x="47.00" y="0.00" width="3.00" height="50.00" />
      <rect x="52.00" y="0.00" width="2.00" height="50.00" />
      <rect x="55.00" y="0.00" width="2.00" height="50.00" />
      <rect x="59.00" y="0.00" width="1.00" height="50.00" />
      <rect x="61.00" y="0.00" width="1.00" height="50.00" />
      <rect x="66.00" y="0.00" width="2.00" height="50.00" />
      <rect x="71.00" y="0.00" width="3.00" height="50.00" />
      <rect x="75.00" y="0.00" width="1.00" height="50.00" />
      <rect x="77.00" y="0.00" width="2.00" height="50.00" />
      <text x="39.50" y="59.00" text-anchor="middle"
         font-family="Helvetica" font-size="8.0" fill="#000000" >
         54321
      </text>
   </g>
</svg>
