<svg width="180mm" height="30mm" version="1.1" viewBox="0 0 180 30" xmlns="http://www.w3.org/2000/svg">
 <g stroke-width=".75859" aria-label="Symbology">
  <path d="m60.122 17.353v-1.9116c0-1.3655-0.81927-2.8826-2.3668-3.3074l-7.9196-2.3061c-0.15172-0.030343-0.33378-0.24275-0.33378-0.51584v-1.5172c0-0.24275 0.81927-1.0924 1.3048-1.3351 0 0 0.06069-0.030343 0.18206-0.030343h4.2784c0.15172 0 0.18206 0.030343 0.18206 0.030343 0.63721 0.39446 1.3351 1.3958 1.3351 1.3958l3.0647-0.87996c-0.2124-0.45515-0.36412-0.72824-0.60687-1.062-0.78893-1.0317-2.033-2.5185-3.8536-2.5185h-4.4908c-0.66755 0-1.3958 0.27309-1.8813 0.54618-0.63721 0.36412-1.8813 1.6385-2.2454 2.1847s-0.45515 1.2137-0.45515 1.7296v1.6385c0 1.3958 0.81927 2.8826 2.3668 3.3074l7.8893 2.2454c0.15172 0.03034 0.36412 0.24275 0.36412 0.51584v1.7903c0 0.24275-0.9103 1.153-1.3655 1.3958 0 0-0.06069 0.03034-0.18206 0.03034h-4.9763c-0.15172 0-0.2124-0.03034-0.2124-0.03034-0.72824-0.54618-1.3351-1.3958-1.3351-1.3958l-3.004 1.0013c0.24275 0.45515 0.30343 0.60687 0.54618 0.94064 0.78893 1.062 2.0634 2.5185 3.8536 2.5185h5.2798c0.63721 0 1.3958-0.27309 1.8813-0.54618 0.63721-0.36412 1.8509-1.6385 2.2151-2.1847 0.39446-0.54618 0.4855-1.2137 0.4855-1.7296z"/>
  <path d="m74.969 8.5538h-3.2164l-3.095 8.8906-3.0647-8.8906h-3.3985l4.8246 13.108h0.27309l-1.8206 4.9156h3.0647z"/>
  <path d="m94.925 21.662v-9.2851c0-0.60687-0.12137-1.2744-0.54618-1.8509-0.24275-0.36412-1.0013-1.1227-1.4565-1.4565-0.60687-0.42481-1.4565-0.66755-2.2151-0.66755h-1.5172c-0.6979 0-1.6689 0.54618-2.1847 0.94065l-0.66755 0.51584c-0.30343-0.30343-0.63721-0.60687-0.87996-0.78893-0.60687-0.42481-1.4565-0.66755-2.2151-0.66755h-1.5172c-0.6979 0-1.3655 0.45515-1.9116 0.84962l-0.15172-0.6979h-2.9737l0.30343 2.7006v10.408h3.0343v-9.1334c0.39446-0.42481 1.0013-1.2441 1.7903-1.2441h1.3958c0.09103 0 0.18206 0 0.24275 0.03034 0.33378 0.2124 0.81927 0.60687 1.0013 0.94064 0.03034 0.06069 0.03034 0.15172 0.03034 0.18206v9.2244h3.0343v-9.1637c0.39446-0.42481 1.153-1.2137 1.7599-1.2137h1.3958c0.09103 0 0.18206 0 0.24275 0.03034 0.33378 0.2124 0.75858 0.60687 0.94064 0.94064 0.03034 0.09103 0.03034 0.15172 0.03034 0.18206v9.2244z"/>
  <path d="m110 17.778v-5.3708c0-0.66755-0.15172-1.3351-0.54618-1.8813-0.24275-0.33378-0.97099-1.153-1.4565-1.4868-0.60687-0.42481-1.4261-0.63721-2.1847-0.63721h-2.2454c-0.63721 0-1.2744 0.33378-1.7903 0.6979v-5.5832h-3.0343v15.445l-0.24275 2.7006h3.004l0.091-0.66756c0.54618 0.42481 1.2441 0.81927 1.9723 0.81927h2.2454c0.75859 0 1.6082-0.24275 2.1847-0.66756 0.45515-0.33378 1.2137-1.1227 1.4565-1.4868 0.39446-0.57652 0.54618-1.2137 0.54618-1.8813zm-3.0343-0.06069c0 0.12137-0.0303 0.18206-0.0303 0.18206-0.21241 0.36412-0.63721 0.75858-0.97099 0.97099-0.0607 0.03034-0.12138 0.06069-0.18206 0.06069h-2.124c-0.33378 0-1.4868-0.9103-1.8813-1.3655v-4.946c0.39446-0.45515 1.5172-1.3351 1.8813-1.3351h2.0937c0.091 0 0.18206 0 0.21241 0.03034 0.33378 0.2124 0.75858 0.63721 0.97099 1.0013 0 0 0.0303 0.06069 0.0303 0.15172z"/>
  <path d="m124.63 17.839v-5.4618c0-0.60687-0.091-1.2744-0.51584-1.8509-0.24275-0.36412-1.0013-1.1227-1.4565-1.4565-0.60687-0.42481-1.4565-0.66755-2.2151-0.66755h-2.8523c-0.75859 0-1.5779 0.24275-2.1847 0.66755-0.45515 0.33378-1.2441 1.0924-1.4868 1.4565-0.42481 0.57652-0.51584 1.2441-0.51584 1.8509v5.4618c0 0.60687 0.091 1.2744 0.51584 1.8509 0.24274 0.36412 1.0317 1.153 1.4868 1.4868 0.60687 0.42481 1.4261 0.63721 2.1847 0.63721h2.8523c0.75858 0 1.6082-0.2124 2.2151-0.63721 0.45515-0.33378 1.2137-1.1227 1.4565-1.4868 0.42481-0.57652 0.51584-1.2441 0.51584-1.8509zm-8.1927-5.3708s0-0.12137 0.0303-0.18206c0.21241-0.36412 0.63721-0.75858 1.0013-0.97099 0.0607-0.03034 0.091-0.03034 0.15172-0.03034h2.7916c0.0607 0 0.091 0 0.15172 0.03034 0.36412 0.2124 0.81927 0.66756 1.0013 0.97099 0.0303 0.09103 0.0303 0.15172 0.0303 0.18206v5.5225c-0.0303 0.24275-0.72824 0.72824-1.0013 0.87996-0.0607 0.03034-0.12137 0.06069-0.18206 0.06069h-2.7916c-0.12137 0-0.18206-0.03034-0.18206-0.03034-0.36412-0.2124-1.0013-0.66756-1.0013-0.9103z"/>
  <path d="m131.62 21.662-0.39446-2.6702v-15.475h-3.0343v15.809s0.27309 1.7296 0.36412 2.3364z"/>
  <path d="m146.26 17.839v-5.4618c0-0.60687-0.091-1.2744-0.51584-1.8509-0.24275-0.36412-1.0013-1.1227-1.4565-1.4565-0.60687-0.42481-1.4565-0.66755-2.2151-0.66755h-2.8523c-0.75859 0-1.5779 0.24275-2.1847 0.66755-0.45515 0.33378-1.2441 1.0924-1.4868 1.4565-0.42481 0.57652-0.51584 1.2441-0.51584 1.8509v5.4618c0 0.60687 0.091 1.2744 0.51584 1.8509 0.24274 0.36412 1.0317 1.153 1.4868 1.4868 0.60687 0.42481 1.4261 0.63721 2.1847 0.63721h2.8523c0.75858 0 1.6082-0.2124 2.2151-0.63721 0.45515-0.33378 1.2137-1.1227 1.4565-1.4868 0.42481-0.57652 0.51584-1.2441 0.51584-1.8509zm-8.1927-5.3708s0-0.12137 0.0303-0.18206c0.21241-0.36412 0.63721-0.75858 1.0013-0.97099 0.0607-0.03034 0.091-0.03034 0.15171-0.03034h2.7916c0.0607 0 0.091 0 0.15172 0.03034 0.36412 0.2124 0.81927 0.66756 1.0013 0.97099 0.0303 0.09103 0.0303 0.15172 0.0303 0.18206v5.5225c-0.0303 0.24275-0.72824 0.72824-1.0013 0.87996-0.0607 0.03034-0.12138 0.06069-0.18207 0.06069h-2.7916c-0.12137 0-0.18206-0.03034-0.18206-0.03034-0.36412-0.2124-1.0013-0.66756-1.0013-0.9103z"/>
  <path d="m161.36 8.5538h-2.9736l-0.12137 0.66755c-0.54619-0.42481-1.2744-0.81927-2.0027-0.81927h-2.3364c-0.72824 0-1.6082 0.24275-2.2151 0.66755-0.48549 0.33378-1.2137 1.153-1.4565 1.4868-0.42481 0.57652-0.54618 1.2441-0.54618 1.8813v5.3101c0 0.63721 0.12137 1.3048 0.54618 1.8813 0.24274 0.33378 0.97099 1.153 1.4565 1.4868 0.60687 0.42481 1.4868 0.66756 2.2151 0.66756h2.3364c0.63721 0 1.2744-0.36412 1.7903-0.72824v1.8509c-0.0303 0.24275-0.72824 0.78893-1.0013 0.94064-0.0607 0.03034-0.12137 0.06069-0.18206 0.06069h-2.7309c-0.30343 0-0.94064-0.60687-1.1227-0.81927-0.0607-0.06069-0.091-0.12137-0.091-0.12137l-2.8219 0.84962c0.30343 0.72824 1.4565 1.9116 1.942 2.2454 0.57652 0.39446 1.4565 0.72824 2.1847 0.72824h2.6702c0.72824 0 1.6082-0.24275 2.2151-0.66756 0.45515-0.33378 1.2137-1.0924 1.4565-1.4565 0.42481-0.57652 0.51584-1.2744 0.51584-1.9116v-11.47zm-7.4038 10.347c-0.0303 0-0.12137 0-0.18206-0.03034-0.33378-0.2124-0.78893-0.63721-1.0013-1.0013-0.0303-0.06069-0.0303-0.18206-0.0303-0.18206v-5.1887s0-0.09103 0.0303-0.15172c0.2124-0.36412 0.66755-0.78893 1.0013-1.0013 0.0607-0.03034 0.12138-0.06069 0.18206-0.06069h2.2151c0.45515 0 1.4565 0.97099 1.8813 1.4261v4.7943c-0.39446 0.45515-1.1227 1.0924-1.6689 1.3655-0.0607 0.03034-0.2124 0.03034-0.2124 0.03034z"/>
  <path d="m176.01 8.5538h-3.2164l-3.095 8.8906-3.0647-8.8906h-3.3985l4.8246 13.108h0.2731l-1.8206 4.9156h3.0647z"/>
 </g>
 <g fill="#1278aa" stroke="#000">
  <rect x="3.2808" y="2.8694" width="4.6" height="18.762" stroke-width=".028188"/>
  <rect x="9.4581" y="2.8623" width="1.2719" height="18.762" stroke-width=".014823"/>
  <rect x="12.318" y="2.8623" width="1.2719" height="18.762" stroke-width=".014823"/>
  <rect x="15.228" y="2.8657" width="2.6827" height="18.762" stroke-width=".021527"/>
  <rect x="19.348" y="2.8623" width="1.2719" height="18.762" stroke-width=".014823"/>
  <rect x="22.108" y="2.8694" width="4.6" height="18.762" stroke-width=".028188"/>
  <g stroke-width=".014823">
   <rect x="28.285" y="2.8623" width="1.2719" height="18.762"/>
   <rect x="31.144" y="2.8623" width="1.2719" height="18.762"/>
   <rect x="33.8" y="2.8623" width="1.2719" height="18.762"/>
  </g>
  <rect x="36.266" y="2.8657" width="2.6827" height="18.762" stroke-width=".021527"/>
 </g>
 <g stroke="#000">
  <rect x=".32448" y="1.3915" width="1.2719" height="22.238" stroke-width=".016137"/>
  <rect transform="rotate(90)" x=".33284" y="-4.3104" width="1.2719" height="3.9939" stroke-width=".0068389"/>
  <rect transform="rotate(90)" x="23.063" y="-4.2978" width="1.2719" height="3.9939" stroke-width=".0068389"/>
  <rect transform="scale(-1,1)" x="-41.871" y="1.3915" width="1.2719" height="22.238" stroke-width=".016137"/>
  <rect transform="matrix(0,1,1,0,0,0)" x=".33284" y="37.885" width="1.2719" height="3.9939" stroke-width=".0068389"/>
  <rect transform="matrix(0,1,1,0,0,0)" x="23.063" y="37.898" width="1.2719" height="3.9939" stroke-width=".0068389"/>
 </g>
</svg>
