<?xml version="1.0" standalone="no"?>
<!DOCTYPE svg PUBLIC "-//W3C//DTD SVG 1.1//EN"
   "http://www.w3.org/Graphics/SVG/1.1/DTD/svg11.dtd">
<svg width="192" height="48" version="1.1"
   xmlns="http://www.w3.org/2000/svg">
   <desc>Zint Generated Symbol
   </desc>

   <g id="barcode" fill="#000000">
      <rect x="0.00" y="0.00" width="6.00" height="6.00" />
      <rect x="12.00" y="0.00" width="6.00" height="6.00" />
      <rect x="24.00" y="0.00" width="6.00" height="6.00" />
      <rect x="36.00" y="0.00" width="6.00" height="6.00" />
      <rect x="48.00" y="0.00" width="6.00" height="6.00" />
      <rect x="60.00" y="0.00" width="6.00" height="6.00" />
      <rect x="72.00" y="0.00" width="6.00" height="6.00" />
      <rect x="84.00" y="0.00" width="6.00" height="6.00" />
      <rect x="96.00" y="0.00" width="6.00" height="6.00" />
      <rect x="108.00" y="0.00" width="6.00" height="6.00" />
      <rect x="120.00" y="0.00" width="6.00" height="6.00" />
      <rect x="132.00" y="0.00" width="6.00" height="6.00" />
      <rect x="144.00" y="0.00" width="6.00" height="6.00" />
      <rect x="156.00" y="0.00" width="6.00" height="6.00" />
      <rect x="168.00" y="0.00" width="6.00" height="12.00" />
      <rect x="180.00" y="0.00" width="6.00" height="6.00" />
      <rect x="0.00" y="6.00" width="12.00" height="6.00" />
      <rect x="18.00" y="6.00" width="6.00" height="6.00" />
      <rect x="36.00" y="6.00" width="24.00" height="6.00" />
      <rect x="66.00" y="6.00" width="6.00" height="12.00" />
      <rect x="90.00" y="6.00" width="12.00" height="6.00" />
      <rect x="120.00" y="6.00" width="18.00" height="6.00" />
      <rect x="150.00" y="6.00" width="6.00" height="6.00" />
      <rect x="180.00" y="6.00" width="12.00" height="6.00" />
      <rect x="0.00" y="12.00" width="6.00" height="6.00" />
      <rect x="18.00" y="12.00" width="18.00" height="6.00" />
      <rect x="42.00" y="12.00" width="6.00" height="12.00" />
      <rect x="78.00" y="12.00" width="12.00" height="6.00" />
      <rect x="96.00" y="12.00" width="6.00" height="6.00" />
      <rect x="108.00" y="12.00" width="12.00" height="6.00" />
      <rect x="126.00" y="12.00" width="6.00" height="6.00" />
      <rect x="138.00" y="12.00" width="12.00" height="6.00" />
      <rect x="156.00" y="12.00" width="12.00" height="6.00" />
      <rect x="180.00" y="12.00" width="6.00" height="6.00" />
      <rect x="0.00" y="18.00" width="18.00" height="6.00" />
      <rect x="30.00" y="18.00" width="6.00" height="6.00" />
      <rect x="54.00" y="18.00" width="12.00" height="6.00" />
      <rect x="72.00" y="18.00" width="6.00" height="6.00" />
      <rect x="90.00" y="18.00" width="24.00" height="6.00" />
      <rect x="126.00" y="18.00" width="18.00" height="6.00" />
      <rect x="150.00" y="18.00" width="30.00" height="6.00" />
      <rect x="186.00" y="18.00" width="6.00" height="6.00" />
      <rect x="0.00" y="24.00" width="6.00" height="12.00" />
      <rect x="12.00" y="24.00" width="12.00" height="6.00" />
      <rect x="54.00" y="24.00" width="6.00" height="6.00" />
      <rect x="66.00" y="24.00" width="12.00" height="6.00" />
      <rect x="84.00" y="24.00" width="6.00" height="6.00" />
      <rect x="96.00" y="24.00" width="12.00" height="6.00" />
      <rect x="126.00" y="24.00" width="24.00" height="6.00" />
      <rect x="162.00" y="24.00" width="6.00" height="6.00" />
      <rect x="18.00" y="30.00" width="18.00" height="6.00" />
      <rect x="42.00" y="30.00" width="12.00" height="6.00" />
      <rect x="60.00" y="30.00" width="12.00" height="6.00" />
      <rect x="78.00" y="30.00" width="6.00" height="6.00" />
      <rect x="90.00" y="30.00" width="12.00" height="6.00" />
      <rect x="108.00" y="30.00" width="6.00" height="6.00" />
      <rect x="120.00" y="30.00" width="12.00" height="6.00" />
      <rect x="138.00" y="30.00" width="18.00" height="6.00" />
      <rect x="162.00" y="30.00" width="30.00" height="6.00" />
      <rect x="0.00" y="36.00" width="18.00" height="6.00" />
      <rect x="30.00" y="36.00" width="6.00" height="6.00" />
      <rect x="48.00" y="36.00" width="6.00" height="6.00" />
      <rect x="60.00" y="36.00" width="24.00" height="6.00" />
      <rect x="96.00" y="36.00" width="6.00" height="6.00" />
      <rect x="114.00" y="36.00" width="30.00" height="6.00" />
      <rect x="156.00" y="36.00" width="30.00" height="6.00" />
      <rect x="0.00" y="42.00" width="192.00" height="6.00" />
   </g>
</svg>
