<?xml version="1.0" standalone="no"?>
<!DOCTYPE svg PUBLIC "-//W3C//DTD SVG 1.1//EN" "http://www.w3.org/Graphics/SVG/1.1/DTD/svg11.dtd">
<svg width="180" height="174" version="1.1" xmlns="http://www.w3.org/2000/svg">
 <desc>Zint Generated Symbol</desc>
 <g id="barcode" fill="#000000">
  <path d="M39 6.46L41.6 4.96L41.6 1.96L39 0.46L36.4 1.96L36.4 4.96ZM45 6.46L47.6 4.96L47.6 1.96L45 0.46L42.4 1.96L42.4 4.96ZM57 6.46L59.6 4.96L59.6 1.96L57 0.46L54.4 1.96L54.4 4.96ZM87 6.46L89.6 4.96L89.6 1.96L87 0.46L84.4 1.96L84.4 4.96ZM99 6.46L101.6 4.96L101.6 1.96L99 0.46L96.4 1.96L96.4 4.96ZM153 6.46L155.6 4.96L155.6 1.96L153 0.46L150.4 1.96L150.4 4.96ZM171 6.46L173.6 4.96L173.6 1.96L171 0.46L168.4 1.96L168.4 4.96ZM177 6.46L179.6 4.96L179.6 1.96L177 0.46L174.4 1.96L174.4 4.96ZM6 11.66L8.6 10.16L8.6 7.16L6 5.66L3.4 7.16L3.4 10.16ZM12 11.66L14.6 10.16L14.6 7.16L12 5.66L9.4 7.16L9.4 10.16ZM18 11.66L20.6 10.16L20.6 7.16L18 5.66L15.4 7.16L15.4 10.16ZM30 11.66L32.6 10.16L32.6 7.16L30 5.66L27.4 7.16L27.4 10.16ZM48 11.66L50.6 10.16L50.6 7.16L48 5.66L45.4 7.16L45.4 10.16ZM66 11.66L68.6 10.16L68.6 7.16L66 5.66L63.4 7.16L63.4 10.16ZM72 11.66L74.6 10.16L74.6 7.16L72 5.66L69.4 7.16L69.4 10.16ZM78 11.66L80.6 10.16L80.6 7.16L78 5.66L75.4 7.16L75.4 10.16ZM126 11.66L128.6 10.16L128.6 7.16L126 5.66L123.4 7.16L123.4 10.16ZM138 11.66L140.6 10.16L140.6 7.16L138 5.66L135.4 7.16L135.4 10.16ZM150 11.66L152.6 10.16L152.6 7.16L150 5.66L147.4 7.16L147.4 10.16ZM156 11.66L158.6 10.16L158.6 7.16L156 5.66L153.4 7.16L153.4 10.16ZM168 11.66L170.6 10.16L170.6 7.16L168 5.66L165.4 7.16L165.4 10.16ZM3 16.86L5.6 15.36L5.6 12.36L3 10.86L0.4 12.36L0.4 15.36ZM9 16.86L11.6 15.36L11.6 12.36L9 10.86L6.4 12.36L6.4 15.36ZM27 16.86L29.6 15.36L29.6 12.36L27 10.86L24.4 12.36L24.4 15.36ZM63 16.86L65.6 15.36L65.6 12.36L63 10.86L60.4 12.36L60.4 15.36ZM75 16.86L77.6 15.36L77.6 12.36L75 10.86L72.4 12.36L72.4 15.36ZM87 16.86L89.6 15.36L89.6 12.36L87 10.86L84.4 12.36L84.4 15.36ZM93 16.86L95.6 15.36L95.6 12.36L93 10.86L90.4 12.36L90.4 15.36ZM99 16.86L101.6 15.36L101.6 12.36L99 10.86L96.4 12.36L96.4 15.36ZM105 16.86L107.6 15.36L107.6 12.36L105 10.86L102.4 12.36L102.4 15.36ZM111 16.86L113.6 15.36L113.6 12.36L111 10.86L108.4 12.36L108.4 15.36ZM123 16.86L125.6 15.36L125.6 12.36L123 10.86L120.4 12.36L120.4 15.36ZM129 16.86L131.6 15.36L131.6 12.36L129 10.86L126.4 12.36L126.4 15.36ZM135 16.86L137.6 15.36L137.6 12.36L135 10.86L132.4 12.36L132.4 15.36ZM147 16.86L149.6 15.36L149.6 12.36L147 10.86L144.4 12.36L144.4 15.36ZM153 16.86L155.6 15.36L155.6 12.36L153 10.86L150.4 12.36L150.4 15.36ZM159 16.86L161.6 15.36L161.6 12.36L159 10.86L156.4 12.36L156.4 15.36ZM171 16.86L173.6 15.36L173.6 12.36L171 10.86L168.4 12.36L168.4 15.36ZM177 16.86L179.6 15.36L179.6 12.36L177 10.86L174.4 12.36L174.4 15.36ZM12 22.05L14.6 20.55L14.6 17.55L12 16.05L9.4 17.55L9.4 20.55ZM24 22.05L26.6 20.55L26.6 17.55L24 16.05L21.4 17.55L21.4 20.55ZM36 22.05L38.6 20.55L38.6 17.55L36 16.05L33.4 17.55L33.4 20.55ZM48 22.05L50.6 20.55L50.6 17.55L48 16.05L45.4 17.55L45.4 20.55ZM54 22.05L56.6 20.55L56.6 17.55L54 16.05L51.4 17.55L51.4 20.55ZM60 22.05L62.6 20.55L62.6 17.55L60 16.05L57.4 17.55L57.4 20.55ZM72 22.05L74.6 20.55L74.6 17.55L72 16.05L69.4 17.55L69.4 20.55ZM78 22.05L80.6 20.55L80.6 17.55L78 16.05L75.4 17.55L75.4 20.55ZM84 22.05L86.6 20.55L86.6 17.55L84 16.05L81.4 17.55L81.4 20.55ZM144 22.05L146.6 20.55L146.6 17.55L144 16.05L141.4 17.55L141.4 20.55ZM150 22.05L152.6 20.55L152.6 17.55L150 16.05L147.4 17.55L147.4 20.55ZM156 22.05L158.6 20.55L158.6 17.55L156 16.05L153.4 17.55L153.4 20.55ZM174 22.05L176.6 20.55L176.6 17.55L174 16.05L171.4 17.55L171.4 20.55ZM51 27.25L53.6 25.75L53.6 22.75L51 21.25L48.4 22.75L48.4 25.75ZM75 27.25L77.6 25.75L77.6 22.75L75 21.25L72.4 22.75L72.4 25.75ZM81 27.25L83.6 25.75L83.6 22.75L81 21.25L78.4 22.75L78.4 25.75ZM87 27.25L89.6 25.75L89.6 22.75L87 21.25L84.4 22.75L84.4 25.75ZM99 27.25L101.6 25.75L101.6 22.75L99 21.25L96.4 22.75L96.4 25.75ZM111 27.25L113.6 25.75L113.6 22.75L111 21.25L108.4 22.75L108.4 25.75ZM117 27.25L119.6 25.75L119.6 22.75L117 21.25L114.4 22.75L114.4 25.75ZM123 27.25L125.6 25.75L125.6 22.75L123 21.25L120.4 22.75L120.4 25.75ZM129 27.25L131.6 25.75L131.6 22.75L129 21.25L126.4 22.75L126.4 25.75ZM153 27.25L155.6 25.75L155.6 22.75L153 21.25L150.4 22.75L150.4 25.75ZM159 27.25L161.6 25.75L161.6 22.75L159 21.25L156.4 22.75L156.4 25.75ZM165 27.25L167.6 25.75L167.6 22.75L165 21.25L162.4 22.75L162.4 25.75ZM171 27.25L173.6 25.75L173.6 22.75L171 21.25L168.4 22.75L168.4 25.75ZM6 32.44L8.6 30.94L8.6 27.94L6 26.44L3.4 27.94L3.4 30.94ZM18 32.44L20.6 30.94L20.6 27.94L18 26.44L15.4 27.94L15.4 30.94ZM30 32.44L32.6 30.94L32.6 27.94L30 26.44L27.4 27.94L27.4 30.94ZM42 32.44L44.6 30.94L44.6 27.94L42 26.44L39.4 27.94L39.4 30.94ZM78 32.44L80.6 30.94L80.6 27.94L78 26.44L75.4 27.94L75.4 30.94ZM84 32.44L86.6 30.94L86.6 27.94L84 26.44L81.4 27.94L81.4 30.94ZM90 32.44L92.6 30.94L92.6 27.94L90 26.44L87.4 27.94L87.4 30.94ZM114 32.44L116.6 30.94L116.6 27.94L114 26.44L111.4 27.94L111.4 30.94ZM120 32.44L122.6 30.94L122.6 27.94L120 26.44L117.4 27.94L117.4 30.94ZM126 32.44L128.6 30.94L128.6 27.94L126 26.44L123.4 27.94L123.4 30.94ZM168 32.44L170.6 30.94L170.6 27.94L168 26.44L165.4 27.94L165.4 30.94ZM9 37.64L11.6 36.14L11.6 33.14L9 31.64L6.4 33.14L6.4 36.14ZM21 37.64L23.6 36.14L23.6 33.14L21 31.64L18.4 33.14L18.4 36.14ZM33 37.64L35.6 36.14L35.6 33.14L33 31.64L30.4 33.14L30.4 36.14ZM45 37.64L47.6 36.14L47.6 33.14L45 31.64L42.4 33.14L42.4 36.14ZM57 37.64L59.6 36.14L59.6 33.14L57 31.64L54.4 33.14L54.4 36.14ZM69 37.64L71.6 36.14L71.6 33.14L69 31.64L66.4 33.14L66.4 36.14ZM81 37.64L83.6 36.14L83.6 33.14L81 31.64L78.4 33.14L78.4 36.14ZM93 37.64L95.6 36.14L95.6 33.14L93 31.64L90.4 33.14L90.4 36.14ZM105 37.64L107.6 36.14L107.6 33.14L105 31.64L102.4 33.14L102.4 36.14ZM117 37.64L119.6 36.14L119.6 33.14L117 31.64L114.4 33.14L114.4 36.14ZM129 37.64L131.6 36.14L131.6 33.14L129 31.64L126.4 33.14L126.4 36.14ZM141 37.64L143.6 36.14L143.6 33.14L141 31.64L138.4 33.14L138.4 36.14ZM153 37.64L155.6 36.14L155.6 33.14L153 31.64L150.4 33.14L150.4 36.14ZM165 37.64L167.6 36.14L167.6 33.14L165 31.64L162.4 33.14L162.4 36.14ZM171 37.64L173.6 36.14L173.6 33.14L171 31.64L168.4 33.14L168.4 36.14ZM177 37.64L179.6 36.14L179.6 33.14L177 31.64L174.4 33.14L174.4 36.14ZM174 42.84L176.6 41.34L176.6 38.34L174 36.84L171.4 38.34L171.4 41.34ZM3 48.03L5.6 46.53L5.6 43.53L3 42.03L0.4 43.53L0.4 46.53ZM15 48.03L17.6 46.53L17.6 43.53L15 42.03L12.4 43.53L12.4 46.53ZM27 48.03L29.6 46.53L29.6 43.53L27 42.03L24.4 43.53L24.4 46.53ZM39 48.03L41.6 46.53L41.6 43.53L39 42.03L36.4 43.53L36.4 46.53ZM51 48.03L53.6 46.53L53.6 43.53L51 42.03L48.4 43.53L48.4 46.53ZM63 48.03L65.6 46.53L65.6 43.53L63 42.03L60.4 43.53L60.4 46.53ZM75 48.03L77.6 46.53L77.6 43.53L75 42.03L72.4 43.53L72.4 46.53ZM87 48.03L89.6 46.53L89.6 43.53L87 42.03L84.4 43.53L84.4 46.53ZM99 48.03L101.6 46.53L101.6 43.53L99 42.03L96.4 43.53L96.4 46.53ZM111 48.03L113.6 46.53L113.6 43.53L111 42.03L108.4 43.53L108.4 46.53ZM123 48.03L125.6 46.53L125.6 43.53L123 42.03L120.4 43.53L120.4 46.53ZM135 48.03L137.6 46.53L137.6 43.53L135 42.03L132.4 43.53L132.4 46.53ZM147 48.03L149.6 46.53L149.6 43.53L147 42.03L144.4 43.53L144.4 46.53ZM159 48.03L161.6 46.53L161.6 43.53L159 42.03L156.4 43.53L156.4 46.53ZM12 53.23L14.6 51.73L14.6 48.73L12 47.23L9.4 48.73L9.4 51.73ZM24 53.23L26.6 51.73L26.6 48.73L24 47.23L21.4 48.73L21.4 51.73ZM36 53.23L38.6 51.73L38.6 48.73L36 47.23L33.4 48.73L33.4 51.73ZM48 53.23L50.6 51.73L50.6 48.73L48 47.23L45.4 48.73L45.4 51.73ZM54 53.23L56.6 51.73L56.6 48.73L54 47.23L51.4 48.73L51.4 51.73ZM66 53.23L68.6 51.73L68.6 48.73L66 47.23L63.4 48.73L63.4 51.73ZM72 53.23L74.6 51.73L74.6 48.73L72 47.23L69.4 48.73L69.4 51.73ZM84 53.23L86.6 51.73L86.6 48.73L84 47.23L81.4 48.73L81.4 51.73ZM90 53.23L92.6 51.73L92.6 48.73L90 47.23L87.4 48.73L87.4 51.73ZM114 53.23L116.6 51.73L116.6 48.73L114 47.23L111.4 48.73L111.4 51.73ZM126 53.23L128.6 51.73L128.6 48.73L126 47.23L123.4 48.73L123.4 51.73ZM144 53.23L146.6 51.73L146.6 48.73L144 47.23L141.4 48.73L141.4 51.73ZM156 53.23L158.6 51.73L158.6 48.73L156 47.23L153.4 48.73L153.4 51.73ZM168 53.23L170.6 51.73L170.6 48.73L168 47.23L165.4 48.73L165.4 51.73ZM51 58.42L53.6 56.92L53.6 53.92L51 52.42L48.4 53.92L48.4 56.92ZM69 58.42L71.6 56.92L71.6 53.92L69 52.42L66.4 53.92L66.4 56.92ZM93 58.42L95.6 56.92L95.6 53.92L93 52.42L90.4 53.92L90.4 56.92ZM99 58.42L101.6 56.92L101.6 53.92L99 52.42L96.4 53.92L96.4 56.92ZM129 58.42L131.6 56.92L131.6 53.92L129 52.42L126.4 53.92L126.4 56.92ZM6 63.62L8.6 62.12L8.6 59.12L6 57.62L3.4 59.12L3.4 62.12ZM18 63.62L20.6 62.12L20.6 59.12L18 57.62L15.4 59.12L15.4 62.12ZM30 63.62L32.6 62.12L32.6 59.12L30 57.62L27.4 59.12L27.4 62.12ZM42 63.62L44.6 62.12L44.6 59.12L42 57.62L39.4 59.12L39.4 62.12ZM54 63.62L56.6 62.12L56.6 59.12L54 57.62L51.4 59.12L51.4 62.12ZM114 63.62L116.6 62.12L116.6 59.12L114 57.62L111.4 59.12L111.4 62.12ZM132 63.62L134.6 62.12L134.6 59.12L132 57.62L129.4 59.12L129.4 62.12ZM138 63.62L140.6 62.12L140.6 59.12L138 57.62L135.4 59.12L135.4 62.12ZM150 63.62L152.6 62.12L152.6 59.12L150 57.62L147.4 59.12L147.4 62.12ZM162 63.62L164.6 62.12L164.6 59.12L162 57.62L159.4 59.12L159.4 62.12ZM9 68.82L11.6 67.32L11.6 64.32L9 62.82L6.4 64.32L6.4 67.32ZM21 68.82L23.6 67.32L23.6 64.32L21 62.82L18.4 64.32L18.4 67.32ZM33 68.82L35.6 67.32L35.6 64.32L33 62.82L30.4 64.32L30.4 67.32ZM111 68.82L113.6 67.32L113.6 64.32L111 62.82L108.4 64.32L108.4 67.32ZM129 68.82L131.6 67.32L131.6 64.32L129 62.82L126.4 64.32L126.4 67.32ZM141 68.82L143.6 67.32L143.6 64.32L141 62.82L138.4 64.32L138.4 67.32ZM153 68.82L155.6 67.32L155.6 64.32L153 62.82L150.4 64.32L150.4 67.32ZM165 68.82L167.6 67.32L167.6 64.32L165 62.82L162.4 64.32L162.4 67.32ZM171 68.82L173.6 67.32L173.6 64.32L171 62.82L168.4 64.32L168.4 67.32ZM120 74.01L122.6 72.51L122.6 69.51L120 68.01L117.4 69.51L117.4 72.51ZM3 79.21L5.6 77.71L5.6 74.71L3 73.21L0.4 74.71L0.4 77.71ZM15 79.21L17.6 77.71L17.6 74.71L15 73.21L12.4 74.71L12.4 77.71ZM27 79.21L29.6 77.71L29.6 74.71L27 73.21L24.4 74.71L24.4 77.71ZM51 79.21L53.6 77.71L53.6 74.71L51 73.21L48.4 74.71L48.4 77.71ZM57 79.21L59.6 77.71L59.6 74.71L57 73.21L54.4 74.71L54.4 77.71ZM117 79.21L119.6 77.71L119.6 74.71L117 73.21L114.4 74.71L114.4 77.71ZM129 79.21L131.6 77.71L131.6 74.71L129 73.21L126.4 74.71L126.4 77.71ZM135 79.21L137.6 77.71L137.6 74.71L135 73.21L132.4 74.71L132.4 77.71ZM147 79.21L149.6 77.71L149.6 74.71L147 73.21L144.4 74.71L144.4 77.71ZM159 79.21L161.6 77.71L161.6 74.71L159 73.21L156.4 74.71L156.4 77.71ZM171 79.21L173.6 77.71L173.6 74.71L171 73.21L168.4 74.71L168.4 77.71ZM177 79.21L179.6 77.71L179.6 74.71L177 73.21L174.4 74.71L174.4 77.71ZM12 84.4L14.6 82.9L14.6 79.9L12 78.4L9.4 79.9L9.4 82.9ZM24 84.4L26.6 82.9L26.6 79.9L24 78.4L21.4 79.9L21.4 82.9ZM36 84.4L38.6 82.9L38.6 79.9L36 78.4L33.4 79.9L33.4 82.9ZM42 84.4L44.6 82.9L44.6 79.9L42 78.4L39.4 79.9L39.4 82.9ZM48 84.4L50.6 82.9L50.6 79.9L48 78.4L45.4 79.9L45.4 82.9ZM126 84.4L128.6 82.9L128.6 79.9L126 78.4L123.4 79.9L123.4 82.9ZM132 84.4L134.6 82.9L134.6 79.9L132 78.4L129.4 79.9L129.4 82.9ZM144 84.4L146.6 82.9L146.6 79.9L144 78.4L141.4 79.9L141.4 82.9ZM156 84.4L158.6 82.9L158.6 79.9L156 78.4L153.4 79.9L153.4 82.9ZM168 84.4L170.6 82.9L170.6 79.9L168 78.4L165.4 79.9L165.4 82.9ZM174 84.4L176.6 82.9L176.6 79.9L174 78.4L171.4 79.9L171.4 82.9ZM39 89.6L41.6 88.1L41.6 85.1L39 83.6L36.4 85.1L36.4 88.1ZM51 89.6L53.6 88.1L53.6 85.1L51 83.6L48.4 85.1L48.4 88.1ZM123 89.6L125.6 88.1L125.6 85.1L123 83.6L120.4 85.1L120.4 88.1ZM171 89.6L173.6 88.1L173.6 85.1L171 83.6L168.4 85.1L168.4 88.1ZM177 89.6L179.6 88.1L179.6 85.1L177 83.6L174.4 85.1L174.4 88.1ZM6 94.8L8.6 93.3L8.6 90.3L6 88.8L3.4 90.3L3.4 93.3ZM18 94.8L20.6 93.3L20.6 90.3L18 88.8L15.4 90.3L15.4 93.3ZM30 94.8L32.6 93.3L32.6 90.3L30 88.8L27.4 90.3L27.4 93.3ZM48 94.8L50.6 93.3L50.6 90.3L48 88.8L45.4 90.3L45.4 93.3ZM126 94.8L128.6 93.3L128.6 90.3L126 88.8L123.4 90.3L123.4 93.3ZM138 94.8L140.6 93.3L140.6 90.3L138 88.8L135.4 90.3L135.4 93.3ZM150 94.8L152.6 93.3L152.6 90.3L150 88.8L147.4 90.3L147.4 93.3ZM162 94.8L164.6 93.3L164.6 90.3L162 88.8L159.4 90.3L159.4 93.3ZM9 99.99L11.6 98.49L11.6 95.49L9 93.99L6.4 95.49L6.4 98.49ZM21 99.99L23.6 98.49L23.6 95.49L21 93.99L18.4 95.49L18.4 98.49ZM33 99.99L35.6 98.49L35.6 95.49L33 93.99L30.4 95.49L30.4 98.49ZM51 99.99L53.6 98.49L53.6 95.49L51 93.99L48.4 95.49L48.4 98.49ZM117 99.99L119.6 98.49L119.6 95.49L117 93.99L114.4 95.49L114.4 98.49ZM123 99.99L125.6 98.49L125.6 95.49L123 93.99L120.4 95.49L120.4 98.49ZM141 99.99L143.6 98.49L143.6 95.49L141 93.99L138.4 95.49L138.4 98.49ZM153 99.99L155.6 98.49L155.6 95.49L153 93.99L150.4 95.49L150.4 98.49ZM165 99.99L167.6 98.49L167.6 95.49L165 93.99L162.4 95.49L162.4 98.49ZM171 99.99L173.6 98.49L173.6 95.49L171 93.99L168.4 95.49L168.4 98.49ZM177 99.99L179.6 98.49L179.6 95.49L177 93.99L174.4 95.49L174.4 98.49ZM42 105.19L44.6 103.69L44.6 100.69L42 99.19L39.4 100.69L39.4 103.69ZM48 105.19L50.6 103.69L50.6 100.69L48 99.19L45.4 100.69L45.4 103.69ZM54 105.19L56.6 103.69L56.6 100.69L54 99.19L51.4 100.69L51.4 103.69ZM60 105.19L62.6 103.69L62.6 100.69L60 99.19L57.4 100.69L57.4 103.69ZM114 105.19L116.6 103.69L116.6 100.69L114 99.19L111.4 100.69L111.4 103.69ZM120 105.19L122.6 103.69L122.6 100.69L120 99.19L117.4 100.69L117.4 103.69ZM126 105.19L128.6 103.69L128.6 100.69L126 99.19L123.4 100.69L123.4 103.69ZM174 105.19L176.6 103.69L176.6 100.69L174 99.19L171.4 100.69L171.4 103.69ZM3 110.38L5.6 108.88L5.6 105.88L3 104.38L0.4 105.88L0.4 108.88ZM15 110.38L17.6 108.88L17.6 105.88L15 104.38L12.4 105.88L12.4 108.88ZM27 110.38L29.6 108.88L29.6 105.88L27 104.38L24.4 105.88L24.4 108.88ZM39 110.38L41.6 108.88L41.6 105.88L39 104.38L36.4 105.88L36.4 108.88ZM45 110.38L47.6 108.88L47.6 105.88L45 104.38L42.4 105.88L42.4 108.88ZM51 110.38L53.6 108.88L53.6 105.88L51 104.38L48.4 105.88L48.4 108.88ZM57 110.38L59.6 108.88L59.6 105.88L57 104.38L54.4 105.88L54.4 108.88ZM117 110.38L119.6 108.88L119.6 105.88L117 104.38L114.4 105.88L114.4 108.88ZM135 110.38L137.6 108.88L137.6 105.88L135 104.38L132.4 105.88L132.4 108.88ZM147 110.38L149.6 108.88L149.6 105.88L147 104.38L144.4 105.88L144.4 108.88ZM159 110.38L161.6 108.88L161.6 105.88L159 104.38L156.4 105.88L156.4 108.88ZM12 115.58L14.6 114.08L14.6 111.08L12 109.58L9.4 111.08L9.4 114.08ZM24 115.58L26.6 114.08L26.6 111.08L24 109.58L21.4 111.08L21.4 114.08ZM36 115.58L38.6 114.08L38.6 111.08L36 109.58L33.4 111.08L33.4 114.08ZM48 115.58L50.6 114.08L50.6 111.08L48 109.58L45.4 111.08L45.4 114.08ZM54 115.58L56.6 114.08L56.6 111.08L54 109.58L51.4 111.08L51.4 114.08ZM132 115.58L134.6 114.08L134.6 111.08L132 109.58L129.4 111.08L129.4 114.08ZM144 115.58L146.6 114.08L146.6 111.08L144 109.58L141.4 111.08L141.4 114.08ZM156 115.58L158.6 114.08L158.6 111.08L156 109.58L153.4 111.08L153.4 114.08ZM168 115.58L170.6 114.08L170.6 111.08L168 109.58L165.4 111.08L165.4 114.08ZM174 115.58L176.6 114.08L176.6 111.08L174 109.58L171.4 111.08L171.4 114.08ZM51 120.78L53.6 119.28L53.6 116.28L51 114.78L48.4 116.28L48.4 119.28ZM63 120.78L65.6 119.28L65.6 116.28L63 114.78L60.4 116.28L60.4 119.28ZM87 120.78L89.6 119.28L89.6 116.28L87 114.78L84.4 116.28L84.4 119.28ZM99 120.78L101.6 119.28L101.6 116.28L99 114.78L96.4 116.28L96.4 119.28ZM105 120.78L107.6 119.28L107.6 116.28L105 114.78L102.4 116.28L102.4 119.28ZM117 120.78L119.6 119.28L119.6 116.28L117 114.78L114.4 116.28L114.4 119.28ZM6 125.97L8.6 124.47L8.6 121.47L6 119.97L3.4 121.47L3.4 124.47ZM18 125.97L20.6 124.47L20.6 121.47L18 119.97L15.4 121.47L15.4 124.47ZM30 125.97L32.6 124.47L32.6 121.47L30 119.97L27.4 121.47L27.4 124.47ZM42 125.97L44.6 124.47L44.6 121.47L42 119.97L39.4 121.47L39.4 124.47ZM66 125.97L68.6 124.47L68.6 121.47L66 119.97L63.4 121.47L63.4 124.47ZM90 125.97L92.6 124.47L92.6 121.47L90 119.97L87.4 121.47L87.4 124.47ZM96 125.97L98.6 124.47L98.6 121.47L96 119.97L93.4 121.47L93.4 124.47ZM108 125.97L110.6 124.47L110.6 121.47L108 119.97L105.4 121.47L105.4 124.47ZM114 125.97L116.6 124.47L116.6 121.47L114 119.97L111.4 121.47L111.4 124.47ZM120 125.97L122.6 124.47L122.6 121.47L120 119.97L117.4 121.47L117.4 124.47ZM126 125.97L128.6 124.47L128.6 121.47L126 119.97L123.4 121.47L123.4 124.47ZM138 125.97L140.6 124.47L140.6 121.47L138 119.97L135.4 121.47L135.4 124.47ZM150 125.97L152.6 124.47L152.6 121.47L150 119.97L147.4 121.47L147.4 124.47ZM162 125.97L164.6 124.47L164.6 121.47L162 119.97L159.4 121.47L159.4 124.47ZM174 125.97L176.6 124.47L176.6 121.47L174 119.97L171.4 121.47L171.4 124.47ZM9 131.17L11.6 129.67L11.6 126.67L9 125.17L6.4 126.67L6.4 129.67ZM21 131.17L23.6 129.67L23.6 126.67L21 125.17L18.4 126.67L18.4 129.67ZM33 131.17L35.6 129.67L35.6 126.67L33 125.17L30.4 126.67L30.4 129.67ZM45 131.17L47.6 129.67L47.6 126.67L45 125.17L42.4 126.67L42.4 129.67ZM57 131.17L59.6 129.67L59.6 126.67L57 125.17L54.4 126.67L54.4 129.67ZM69 131.17L71.6 129.67L71.6 126.67L69 125.17L66.4 126.67L66.4 129.67ZM81 131.17L83.6 129.67L83.6 126.67L81 125.17L78.4 126.67L78.4 129.67ZM93 131.17L95.6 129.67L95.6 126.67L93 125.17L90.4 126.67L90.4 129.67ZM105 131.17L107.6 129.67L107.6 126.67L105 125.17L102.4 126.67L102.4 129.67ZM117 131.17L119.6 129.67L119.6 126.67L117 125.17L114.4 126.67L114.4 129.67ZM123 131.17L125.6 129.67L125.6 126.67L123 125.17L120.4 126.67L120.4 129.67ZM129 131.17L131.6 129.67L131.6 126.67L129 125.17L126.4 126.67L126.4 129.67ZM135 131.17L137.6 129.67L137.6 126.67L135 125.17L132.4 126.67L132.4 129.67ZM141 131.17L143.6 129.67L143.6 126.67L141 125.17L138.4 126.67L138.4 129.67ZM147 131.17L149.6 129.67L149.6 126.67L147 125.17L144.4 126.67L144.4 129.67ZM159 131.17L161.6 129.67L161.6 126.67L159 125.17L156.4 126.67L156.4 129.67ZM171 131.17L173.6 129.67L173.6 126.67L171 125.17L168.4 126.67L168.4 129.67ZM144 136.36L146.6 134.86L146.6 131.86L144 130.36L141.4 131.86L141.4 134.86ZM150 136.36L152.6 134.86L152.6 131.86L150 130.36L147.4 131.86L147.4 134.86ZM168 136.36L170.6 134.86L170.6 131.86L168 130.36L165.4 131.86L165.4 134.86ZM174 136.36L176.6 134.86L176.6 131.86L174 130.36L171.4 131.86L171.4 134.86ZM3 141.56L5.6 140.06L5.6 137.06L3 135.56L0.4 137.06L0.4 140.06ZM15 141.56L17.6 140.06L17.6 137.06L15 135.56L12.4 137.06L12.4 140.06ZM27 141.56L29.6 140.06L29.6 137.06L27 135.56L24.4 137.06L24.4 140.06ZM39 141.56L41.6 140.06L41.6 137.06L39 135.56L36.4 137.06L36.4 140.06ZM51 141.56L53.6 140.06L53.6 137.06L51 135.56L48.4 137.06L48.4 140.06ZM63 141.56L65.6 140.06L65.6 137.06L63 135.56L60.4 137.06L60.4 140.06ZM75 141.56L77.6 140.06L77.6 137.06L75 135.56L72.4 137.06L72.4 140.06ZM87 141.56L89.6 140.06L89.6 137.06L87 135.56L84.4 137.06L84.4 140.06ZM99 141.56L101.6 140.06L101.6 137.06L99 135.56L96.4 137.06L96.4 140.06ZM111 141.56L113.6 140.06L113.6 137.06L111 135.56L108.4 137.06L108.4 140.06ZM141 141.56L143.6 140.06L143.6 137.06L141 135.56L138.4 137.06L138.4 140.06ZM147 141.56L149.6 140.06L149.6 137.06L147 135.56L144.4 137.06L144.4 140.06ZM165 141.56L167.6 140.06L167.6 137.06L165 135.56L162.4 137.06L162.4 140.06ZM177 141.56L179.6 140.06L179.6 137.06L177 135.56L174.4 137.06L174.4 140.06ZM6 146.76L8.6 145.26L8.6 142.26L6 140.76L3.4 142.26L3.4 145.26ZM12 146.76L14.6 145.26L14.6 142.26L12 140.76L9.4 142.26L9.4 145.26ZM18 146.76L20.6 145.26L20.6 142.26L18 140.76L15.4 142.26L15.4 145.26ZM24 146.76L26.6 145.26L26.6 142.26L24 140.76L21.4 142.26L21.4 145.26ZM30 146.76L32.6 145.26L32.6 142.26L30 140.76L27.4 142.26L27.4 145.26ZM36 146.76L38.6 145.26L38.6 142.26L36 140.76L33.4 142.26L33.4 145.26ZM42 146.76L44.6 145.26L44.6 142.26L42 140.76L39.4 142.26L39.4 145.26ZM48 146.76L50.6 145.26L50.6 142.26L48 140.76L45.4 142.26L45.4 145.26ZM60 146.76L62.6 145.26L62.6 142.26L60 140.76L57.4 142.26L57.4 145.26ZM84 146.76L86.6 145.26L86.6 142.26L84 140.76L81.4 142.26L81.4 145.26ZM90 146.76L92.6 145.26L92.6 142.26L90 140.76L87.4 142.26L87.4 145.26ZM102 146.76L104.6 145.26L104.6 142.26L102 140.76L99.4 142.26L99.4 145.26ZM108 146.76L110.6 145.26L110.6 142.26L108 140.76L105.4 142.26L105.4 145.26ZM126 146.76L128.6 145.26L128.6 142.26L126 140.76L123.4 142.26L123.4 145.26ZM138 146.76L140.6 145.26L140.6 142.26L138 140.76L135.4 142.26L135.4 145.26ZM144 146.76L146.6 145.26L146.6 142.26L144 140.76L141.4 142.26L141.4 145.26ZM156 146.76L158.6 145.26L158.6 142.26L156 140.76L153.4 142.26L153.4 145.26ZM162 146.76L164.6 145.26L164.6 142.26L162 140.76L159.4 142.26L159.4 145.26ZM168 146.76L170.6 145.26L170.6 142.26L168 140.76L165.4 142.26L165.4 145.26ZM69 151.95L71.6 150.45L71.6 147.45L69 145.95L66.4 147.45L66.4 150.45ZM75 151.95L77.6 150.45L77.6 147.45L75 145.95L72.4 147.45L72.4 150.45ZM81 151.95L83.6 150.45L83.6 147.45L81 145.95L78.4 147.45L78.4 150.45ZM111 151.95L113.6 150.45L113.6 147.45L111 145.95L108.4 147.45L108.4 150.45ZM123 151.95L125.6 150.45L125.6 147.45L123 145.95L120.4 147.45L120.4 150.45ZM153 151.95L155.6 150.45L155.6 147.45L153 145.95L150.4 147.45L150.4 150.45ZM159 151.95L161.6 150.45L161.6 147.45L159 145.95L156.4 147.45L156.4 150.45ZM177 151.95L179.6 150.45L179.6 147.45L177 145.95L174.4 147.45L174.4 150.45ZM6 157.15L8.6 155.65L8.6 152.65L6 151.15L3.4 152.65L3.4 155.65ZM42 157.15L44.6 155.65L44.6 152.65L42 151.15L39.4 152.65L39.4 155.65ZM48 157.15L50.6 155.65L50.6 152.65L48 151.15L45.4 152.65L45.4 155.65ZM60 157.15L62.6 155.65L62.6 152.65L60 151.15L57.4 152.65L57.4 155.65ZM78 157.15L80.6 155.65L80.6 152.65L78 151.15L75.4 152.65L75.4 155.65ZM84 157.15L86.6 155.65L86.6 152.65L84 151.15L81.4 152.65L81.4 155.65ZM96 157.15L98.6 155.65L98.6 152.65L96 151.15L93.4 152.65L93.4 155.65ZM120 157.15L122.6 155.65L122.6 152.65L120 151.15L117.4 152.65L117.4 155.65ZM126 157.15L128.6 155.65L128.6 152.65L126 151.15L123.4 152.65L123.4 155.65ZM144 157.15L146.6 155.65L146.6 152.65L144 151.15L141.4 152.65L141.4 155.65ZM150 157.15L152.6 155.65L152.6 152.65L150 151.15L147.4 152.65L147.4 155.65ZM162 157.15L164.6 155.65L164.6 152.65L162 151.15L159.4 152.65L159.4 155.65ZM174 157.15L176.6 155.65L176.6 152.65L174 151.15L171.4 152.65L171.4 155.65ZM15 162.34L17.6 160.84L17.6 157.84L15 156.34L12.4 157.84L12.4 160.84ZM21 162.34L23.6 160.84L23.6 157.84L21 156.34L18.4 157.84L18.4 160.84ZM57 162.34L59.6 160.84L59.6 157.84L57 156.34L54.4 157.84L54.4 160.84ZM69 162.34L71.6 160.84L71.6 157.84L69 156.34L66.4 157.84L66.4 160.84ZM75 162.34L77.6 160.84L77.6 157.84L75 156.34L72.4 157.84L72.4 160.84ZM93 162.34L95.6 160.84L95.6 157.84L93 156.34L90.4 157.84L90.4 160.84ZM117 162.34L119.6 160.84L119.6 157.84L117 156.34L114.4 157.84L114.4 160.84ZM123 162.34L125.6 160.84L125.6 157.84L123 156.34L120.4 157.84L120.4 160.84ZM141 162.34L143.6 160.84L143.6 157.84L141 156.34L138.4 157.84L138.4 160.84ZM147 162.34L149.6 160.84L149.6 157.84L147 156.34L144.4 157.84L144.4 160.84ZM159 162.34L161.6 160.84L161.6 157.84L159 156.34L156.4 157.84L156.4 160.84ZM165 162.34L167.6 160.84L167.6 157.84L165 156.34L162.4 157.84L162.4 160.84ZM171 162.34L173.6 160.84L173.6 157.84L171 156.34L168.4 157.84L168.4 160.84ZM6 167.54L8.6 166.04L8.6 163.04L6 161.54L3.4 163.04L3.4 166.04ZM18 167.54L20.6 166.04L20.6 163.04L18 161.54L15.4 163.04L15.4 166.04ZM24 167.54L26.6 166.04L26.6 163.04L24 161.54L21.4 163.04L21.4 166.04ZM30 167.54L32.6 166.04L32.6 163.04L30 161.54L27.4 163.04L27.4 166.04ZM42 167.54L44.6 166.04L44.6 163.04L42 161.54L39.4 163.04L39.4 166.04ZM60 167.54L62.6 166.04L62.6 163.04L60 161.54L57.4 163.04L57.4 166.04ZM66 167.54L68.6 166.04L68.6 163.04L66 161.54L63.4 163.04L63.4 166.04ZM72 167.54L74.6 166.04L74.6 163.04L72 161.54L69.4 163.04L69.4 166.04ZM84 167.54L86.6 166.04L86.6 163.04L84 161.54L81.4 163.04L81.4 166.04ZM102 167.54L104.6 166.04L104.6 163.04L102 161.54L99.4 163.04L99.4 166.04ZM114 167.54L116.6 166.04L116.6 163.04L114 161.54L111.4 163.04L111.4 166.04ZM138 167.54L140.6 166.04L140.6 163.04L138 161.54L135.4 163.04L135.4 166.04ZM150 167.54L152.6 166.04L152.6 163.04L150 161.54L147.4 163.04L147.4 166.04ZM168 167.54L170.6 166.04L170.6 163.04L168 161.54L165.4 163.04L165.4 166.04ZM3 172.74L5.6 171.24L5.6 168.24L3 166.74L0.4 168.24L0.4 171.24ZM15 172.74L17.6 171.24L17.6 168.24L15 166.74L12.4 168.24L12.4 171.24ZM21 172.74L23.6 171.24L23.6 168.24L21 166.74L18.4 168.24L18.4 171.24ZM27 172.74L29.6 171.24L29.6 168.24L27 166.74L24.4 168.24L24.4 171.24ZM33 172.74L35.6 171.24L35.6 168.24L33 166.74L30.4 168.24L30.4 171.24ZM51 172.74L53.6 171.24L53.6 168.24L51 166.74L48.4 168.24L48.4 171.24ZM63 172.74L65.6 171.24L65.6 168.24L63 166.74L60.4 168.24L60.4 171.24ZM69 172.74L71.6 171.24L71.6 168.24L69 166.74L66.4 168.24L66.4 171.24ZM75 172.74L77.6 171.24L77.6 168.24L75 166.74L72.4 168.24L72.4 171.24ZM87 172.74L89.6 171.24L89.6 168.24L87 166.74L84.4 168.24L84.4 171.24ZM117 172.74L119.6 171.24L119.6 168.24L117 166.74L114.4 168.24L114.4 171.24ZM123 172.74L125.6 171.24L125.6 168.24L123 166.74L120.4 168.24L120.4 171.24ZM129 172.74L131.6 171.24L131.6 168.24L129 166.74L126.4 168.24L126.4 171.24ZM135 172.74L137.6 171.24L137.6 168.24L135 166.74L132.4 168.24L132.4 171.24ZM147 172.74L149.6 171.24L149.6 168.24L147 166.74L144.4 168.24L144.4 171.24ZM153 172.74L155.6 171.24L155.6 168.24L153 166.74L150.4 168.24L150.4 171.24ZM165 172.74L167.6 171.24L167.6 168.24L165 166.74L162.4 168.24L162.4 171.24ZM177 172.74L179.6 171.24L179.6 168.24L177 166.74L174.4 168.24L174.4 171.24Z"/>
  <circle cx="87" cy="86.6" r="24.646" stroke="#000000" stroke-width="4.707" fill="none"/>
  <circle cx="87" cy="86.6" r="15.232" stroke="#000000" stroke-width="4.707" fill="none"/>
  <circle cx="87" cy="86.6" r="5.818" stroke="#000000" stroke-width="4.707" fill="none"/>
  <text x="90" y="340.03" text-anchor="middle" font-family="Arimo, Arial, sans-serif" font-size="42">
   A MaxiCode Message in Mode 4
  </text>
 </g>
</svg>
