<?xml version="1.0" standalone="no"?>
<!DOCTYPE svg PUBLIC "-//W3C//DTD SVG 1.1//EN" "http://www.w3.org/Graphics/SVG/1.1/DTD/svg11.dtd">
<svg width="180" height="174" version="1.1" xmlns="http://www.w3.org/2000/svg">
 <desc>Zint Generated Symbol</desc>
 <g id="barcode" fill="#000000">
  <path d="M3 6.46L5.6 4.96L5.6 1.96L3 0.46L0.4 1.96L0.4 4.96ZM9 6.46L11.6 4.96L11.6 1.96L9 0.46L6.4 1.96L6.4 4.96ZM21 6.46L23.6 4.96L23.6 1.96L21 0.46L18.4 1.96L18.4 4.96ZM33 6.46L35.6 4.96L35.6 1.96L33 0.46L30.4 1.96L30.4 4.96ZM39 6.46L41.6 4.96L41.6 1.96L39 0.46L36.4 1.96L36.4 4.96ZM45 6.46L47.6 4.96L47.6 1.96L45 0.46L42.4 1.96L42.4 4.96ZM57 6.46L59.6 4.96L59.6 1.96L57 0.46L54.4 1.96L54.4 4.96ZM63 6.46L65.6 4.96L65.6 1.96L63 0.46L60.4 1.96L60.4 4.96ZM75 6.46L77.6 4.96L77.6 1.96L75 0.46L72.4 1.96L72.4 4.96ZM81 6.46L83.6 4.96L83.6 1.96L81 0.46L78.4 1.96L78.4 4.96ZM87 6.46L89.6 4.96L89.6 1.96L87 0.46L84.4 1.96L84.4 4.96ZM93 6.46L95.6 4.96L95.6 1.96L93 0.46L90.4 1.96L90.4 4.96ZM99 6.46L101.6 4.96L101.6 1.96L99 0.46L96.4 1.96L96.4 4.96ZM111 6.46L113.6 4.96L113.6 1.96L111 0.46L108.4 1.96L108.4 4.96ZM117 6.46L119.6 4.96L119.6 1.96L117 0.46L114.4 1.96L114.4 4.96ZM123 6.46L125.6 4.96L125.6 1.96L123 0.46L120.4 1.96L120.4 4.96ZM129 6.46L131.6 4.96L131.6 1.96L129 0.46L126.4 1.96L126.4 4.96ZM135 6.46L137.6 4.96L137.6 1.96L135 0.46L132.4 1.96L132.4 4.96ZM147 6.46L149.6 4.96L149.6 1.96L147 0.46L144.4 1.96L144.4 4.96ZM153 6.46L155.6 4.96L155.6 1.96L153 0.46L150.4 1.96L150.4 4.96ZM171 6.46L173.6 4.96L173.6 1.96L171 0.46L168.4 1.96L168.4 4.96ZM177 6.46L179.6 4.96L179.6 1.96L177 0.46L174.4 1.96L174.4 4.96ZM12 11.66L14.6 10.16L14.6 7.16L12 5.66L9.4 7.16L9.4 10.16ZM24 11.66L26.6 10.16L26.6 7.16L24 5.66L21.4 7.16L21.4 10.16ZM36 11.66L38.6 10.16L38.6 7.16L36 5.66L33.4 7.16L33.4 10.16ZM48 11.66L50.6 10.16L50.6 7.16L48 5.66L45.4 7.16L45.4 10.16ZM60 11.66L62.6 10.16L62.6 7.16L60 5.66L57.4 7.16L57.4 10.16ZM66 11.66L68.6 10.16L68.6 7.16L66 5.66L63.4 7.16L63.4 10.16ZM72 11.66L74.6 10.16L74.6 7.16L72 5.66L69.4 7.16L69.4 10.16ZM102 11.66L104.6 10.16L104.6 7.16L102 5.66L99.4 7.16L99.4 10.16ZM108 11.66L110.6 10.16L110.6 7.16L108 5.66L105.4 7.16L105.4 10.16ZM150 11.66L152.6 10.16L152.6 7.16L150 5.66L147.4 7.16L147.4 10.16ZM156 11.66L158.6 10.16L158.6 7.16L156 5.66L153.4 7.16L153.4 10.16ZM162 11.66L164.6 10.16L164.6 7.16L162 5.66L159.4 7.16L159.4 10.16ZM174 11.66L176.6 10.16L176.6 7.16L174 5.66L171.4 7.16L171.4 10.16ZM3 16.86L5.6 15.36L5.6 12.36L3 10.86L0.4 12.36L0.4 15.36ZM9 16.86L11.6 15.36L11.6 12.36L9 10.86L6.4 12.36L6.4 15.36ZM21 16.86L23.6 15.36L23.6 12.36L21 10.86L18.4 12.36L18.4 15.36ZM27 16.86L29.6 15.36L29.6 12.36L27 10.86L24.4 12.36L24.4 15.36ZM39 16.86L41.6 15.36L41.6 12.36L39 10.86L36.4 12.36L36.4 15.36ZM45 16.86L47.6 15.36L47.6 12.36L45 10.86L42.4 12.36L42.4 15.36ZM69 16.86L71.6 15.36L71.6 12.36L69 10.86L66.4 12.36L66.4 15.36ZM87 16.86L89.6 15.36L89.6 12.36L87 10.86L84.4 12.36L84.4 15.36ZM99 16.86L101.6 15.36L101.6 12.36L99 10.86L96.4 12.36L96.4 15.36ZM123 16.86L125.6 15.36L125.6 12.36L123 10.86L120.4 12.36L120.4 15.36ZM135 16.86L137.6 15.36L137.6 12.36L135 10.86L132.4 12.36L132.4 15.36ZM141 16.86L143.6 15.36L143.6 12.36L141 10.86L138.4 12.36L138.4 15.36ZM147 16.86L149.6 15.36L149.6 12.36L147 10.86L144.4 12.36L144.4 15.36ZM153 16.86L155.6 15.36L155.6 12.36L153 10.86L150.4 12.36L150.4 15.36ZM159 16.86L161.6 15.36L161.6 12.36L159 10.86L156.4 12.36L156.4 15.36ZM171 16.86L173.6 15.36L173.6 12.36L171 10.86L168.4 12.36L168.4 15.36ZM177 16.86L179.6 15.36L179.6 12.36L177 10.86L174.4 12.36L174.4 15.36ZM18 22.05L20.6 20.55L20.6 17.55L18 16.05L15.4 17.55L15.4 20.55ZM30 22.05L32.6 20.55L32.6 17.55L30 16.05L27.4 17.55L27.4 20.55ZM72 22.05L74.6 20.55L74.6 17.55L72 16.05L69.4 17.55L69.4 20.55ZM78 22.05L80.6 20.55L80.6 17.55L78 16.05L75.4 17.55L75.4 20.55ZM84 22.05L86.6 20.55L86.6 17.55L84 16.05L81.4 17.55L81.4 20.55ZM90 22.05L92.6 20.55L92.6 17.55L90 16.05L87.4 17.55L87.4 20.55ZM102 22.05L104.6 20.55L104.6 17.55L102 16.05L99.4 17.55L99.4 20.55ZM174 22.05L176.6 20.55L176.6 17.55L174 16.05L171.4 17.55L171.4 20.55ZM39 27.25L41.6 25.75L41.6 22.75L39 21.25L36.4 22.75L36.4 25.75ZM51 27.25L53.6 25.75L53.6 22.75L51 21.25L48.4 22.75L48.4 25.75ZM57 27.25L59.6 25.75L59.6 22.75L57 21.25L54.4 22.75L54.4 25.75ZM81 27.25L83.6 25.75L83.6 22.75L81 21.25L78.4 22.75L78.4 25.75ZM93 27.25L95.6 25.75L95.6 22.75L93 21.25L90.4 22.75L90.4 25.75ZM123 27.25L125.6 25.75L125.6 22.75L123 21.25L120.4 22.75L120.4 25.75ZM135 27.25L137.6 25.75L137.6 22.75L135 21.25L132.4 22.75L132.4 25.75ZM141 27.25L143.6 25.75L143.6 22.75L141 21.25L138.4 22.75L138.4 25.75ZM147 27.25L149.6 25.75L149.6 22.75L147 21.25L144.4 22.75L144.4 25.75ZM153 27.25L155.6 25.75L155.6 22.75L153 21.25L150.4 22.75L150.4 25.75ZM171 27.25L173.6 25.75L173.6 22.75L171 21.25L168.4 22.75L168.4 25.75ZM177 27.25L179.6 25.75L179.6 22.75L177 21.25L174.4 22.75L174.4 25.75ZM6 32.44L8.6 30.94L8.6 27.94L6 26.44L3.4 27.94L3.4 30.94ZM18 32.44L20.6 30.94L20.6 27.94L18 26.44L15.4 27.94L15.4 30.94ZM24 32.44L26.6 30.94L26.6 27.94L24 26.44L21.4 27.94L21.4 30.94ZM30 32.44L32.6 30.94L32.6 27.94L30 26.44L27.4 27.94L27.4 30.94ZM36 32.44L38.6 30.94L38.6 27.94L36 26.44L33.4 27.94L33.4 30.94ZM42 32.44L44.6 30.94L44.6 27.94L42 26.44L39.4 27.94L39.4 30.94ZM54 32.44L56.6 30.94L56.6 27.94L54 26.44L51.4 27.94L51.4 30.94ZM90 32.44L92.6 30.94L92.6 27.94L90 26.44L87.4 27.94L87.4 30.94ZM108 32.44L110.6 30.94L110.6 27.94L108 26.44L105.4 27.94L105.4 30.94ZM114 32.44L116.6 30.94L116.6 27.94L114 26.44L111.4 27.94L111.4 30.94ZM144 32.44L146.6 30.94L146.6 27.94L144 26.44L141.4 27.94L141.4 30.94ZM150 32.44L152.6 30.94L152.6 27.94L150 26.44L147.4 27.94L147.4 30.94ZM156 32.44L158.6 30.94L158.6 27.94L156 26.44L153.4 27.94L153.4 30.94ZM162 32.44L164.6 30.94L164.6 27.94L162 26.44L159.4 27.94L159.4 30.94ZM168 32.44L170.6 30.94L170.6 27.94L168 26.44L165.4 27.94L165.4 30.94ZM27 37.64L29.6 36.14L29.6 33.14L27 31.64L24.4 33.14L24.4 36.14ZM33 37.64L35.6 36.14L35.6 33.14L33 31.64L30.4 33.14L30.4 36.14ZM45 37.64L47.6 36.14L47.6 33.14L45 31.64L42.4 33.14L42.4 36.14ZM75 37.64L77.6 36.14L77.6 33.14L75 31.64L72.4 33.14L72.4 36.14ZM105 37.64L107.6 36.14L107.6 33.14L105 31.64L102.4 33.14L102.4 36.14ZM117 37.64L119.6 36.14L119.6 33.14L117 31.64L114.4 33.14L114.4 36.14ZM129 37.64L131.6 36.14L131.6 33.14L129 31.64L126.4 33.14L126.4 36.14ZM141 37.64L143.6 36.14L143.6 33.14L141 31.64L138.4 33.14L138.4 36.14ZM153 37.64L155.6 36.14L155.6 33.14L153 31.64L150.4 33.14L150.4 36.14ZM165 37.64L167.6 36.14L167.6 33.14L165 31.64L162.4 33.14L162.4 36.14ZM177 37.64L179.6 36.14L179.6 33.14L177 31.64L174.4 33.14L174.4 36.14ZM6 42.84L8.6 41.34L8.6 38.34L6 36.84L3.4 38.34L3.4 41.34ZM18 42.84L20.6 41.34L20.6 38.34L18 36.84L15.4 38.34L15.4 41.34ZM36 42.84L38.6 41.34L38.6 38.34L36 36.84L33.4 38.34L33.4 41.34ZM60 42.84L62.6 41.34L62.6 38.34L60 36.84L57.4 38.34L57.4 41.34ZM66 42.84L68.6 41.34L68.6 38.34L66 36.84L63.4 38.34L63.4 41.34ZM90 42.84L92.6 41.34L92.6 38.34L90 36.84L87.4 38.34L87.4 41.34ZM174 42.84L176.6 41.34L176.6 38.34L174 36.84L171.4 38.34L171.4 41.34ZM3 48.03L5.6 46.53L5.6 43.53L3 42.03L0.4 43.53L0.4 46.53ZM9 48.03L11.6 46.53L11.6 43.53L9 42.03L6.4 43.53L6.4 46.53ZM15 48.03L17.6 46.53L17.6 43.53L15 42.03L12.4 43.53L12.4 46.53ZM63 48.03L65.6 46.53L65.6 43.53L63 42.03L60.4 43.53L60.4 46.53ZM81 48.03L83.6 46.53L83.6 43.53L81 42.03L78.4 43.53L78.4 46.53ZM87 48.03L89.6 46.53L89.6 43.53L87 42.03L84.4 43.53L84.4 46.53ZM99 48.03L101.6 46.53L101.6 43.53L99 42.03L96.4 43.53L96.4 46.53ZM111 48.03L113.6 46.53L113.6 43.53L111 42.03L108.4 43.53L108.4 46.53ZM123 48.03L125.6 46.53L125.6 43.53L123 42.03L120.4 43.53L120.4 46.53ZM135 48.03L137.6 46.53L137.6 43.53L135 42.03L132.4 43.53L132.4 46.53ZM147 48.03L149.6 46.53L149.6 43.53L147 42.03L144.4 43.53L144.4 46.53ZM159 48.03L161.6 46.53L161.6 43.53L159 42.03L156.4 43.53L156.4 46.53ZM171 48.03L173.6 46.53L173.6 43.53L171 42.03L168.4 43.53L168.4 46.53ZM177 48.03L179.6 46.53L179.6 43.53L177 42.03L174.4 43.53L174.4 46.53ZM12 53.23L14.6 51.73L14.6 48.73L12 47.23L9.4 48.73L9.4 51.73ZM24 53.23L26.6 51.73L26.6 48.73L24 47.23L21.4 48.73L21.4 51.73ZM36 53.23L38.6 51.73L38.6 48.73L36 47.23L33.4 48.73L33.4 51.73ZM48 53.23L50.6 51.73L50.6 48.73L48 47.23L45.4 48.73L45.4 51.73ZM54 53.23L56.6 51.73L56.6 48.73L54 47.23L51.4 48.73L51.4 51.73ZM66 53.23L68.6 51.73L68.6 48.73L66 47.23L63.4 48.73L63.4 51.73ZM72 53.23L74.6 51.73L74.6 48.73L72 47.23L69.4 48.73L69.4 51.73ZM120 53.23L122.6 51.73L122.6 48.73L120 47.23L117.4 48.73L117.4 51.73ZM126 53.23L128.6 51.73L128.6 48.73L126 47.23L123.4 48.73L123.4 51.73ZM144 53.23L146.6 51.73L146.6 48.73L144 47.23L141.4 48.73L141.4 51.73ZM156 53.23L158.6 51.73L158.6 48.73L156 47.23L153.4 48.73L153.4 51.73ZM168 53.23L170.6 51.73L170.6 48.73L168 47.23L165.4 48.73L165.4 51.73ZM174 53.23L176.6 51.73L176.6 48.73L174 47.23L171.4 48.73L171.4 51.73ZM51 58.42L53.6 56.92L53.6 53.92L51 52.42L48.4 53.92L48.4 56.92ZM63 58.42L65.6 56.92L65.6 53.92L63 52.42L60.4 53.92L60.4 56.92ZM69 58.42L71.6 56.92L71.6 53.92L69 52.42L66.4 53.92L66.4 56.92ZM81 58.42L83.6 56.92L83.6 53.92L81 52.42L78.4 53.92L78.4 56.92ZM129 58.42L131.6 56.92L131.6 53.92L129 52.42L126.4 53.92L126.4 56.92ZM177 58.42L179.6 56.92L179.6 53.92L177 52.42L174.4 53.92L174.4 56.92ZM6 63.62L8.6 62.12L8.6 59.12L6 57.62L3.4 59.12L3.4 62.12ZM18 63.62L20.6 62.12L20.6 59.12L18 57.62L15.4 59.12L15.4 62.12ZM30 63.62L32.6 62.12L32.6 59.12L30 57.62L27.4 59.12L27.4 62.12ZM42 63.62L44.6 62.12L44.6 59.12L42 57.62L39.4 59.12L39.4 62.12ZM54 63.62L56.6 62.12L56.6 59.12L54 57.62L51.4 59.12L51.4 62.12ZM108 63.62L110.6 62.12L110.6 59.12L108 57.62L105.4 59.12L105.4 62.12ZM120 63.62L122.6 62.12L122.6 59.12L120 57.62L117.4 59.12L117.4 62.12ZM132 63.62L134.6 62.12L134.6 59.12L132 57.62L129.4 59.12L129.4 62.12ZM138 63.62L140.6 62.12L140.6 59.12L138 57.62L135.4 59.12L135.4 62.12ZM150 63.62L152.6 62.12L152.6 59.12L150 57.62L147.4 59.12L147.4 62.12ZM162 63.62L164.6 62.12L164.6 59.12L162 57.62L159.4 59.12L159.4 62.12ZM9 68.82L11.6 67.32L11.6 64.32L9 62.82L6.4 64.32L6.4 67.32ZM21 68.82L23.6 67.32L23.6 64.32L21 62.82L18.4 64.32L18.4 67.32ZM33 68.82L35.6 67.32L35.6 64.32L33 62.82L30.4 64.32L30.4 67.32ZM111 68.82L113.6 67.32L113.6 64.32L111 62.82L108.4 64.32L108.4 67.32ZM123 68.82L125.6 67.32L125.6 64.32L123 62.82L120.4 64.32L120.4 67.32ZM129 68.82L131.6 67.32L131.6 64.32L129 62.82L126.4 64.32L126.4 67.32ZM141 68.82L143.6 67.32L143.6 64.32L141 62.82L138.4 64.32L138.4 67.32ZM153 68.82L155.6 67.32L155.6 64.32L153 62.82L150.4 64.32L150.4 67.32ZM165 68.82L167.6 67.32L167.6 64.32L165 62.82L162.4 64.32L162.4 67.32ZM177 68.82L179.6 67.32L179.6 64.32L177 62.82L174.4 64.32L174.4 67.32ZM42 74.01L44.6 72.51L44.6 69.51L42 68.01L39.4 69.51L39.4 72.51ZM114 74.01L116.6 72.51L116.6 69.51L114 68.01L111.4 69.51L111.4 72.51ZM132 74.01L134.6 72.51L134.6 69.51L132 68.01L129.4 69.51L129.4 72.51ZM3 79.21L5.6 77.71L5.6 74.71L3 73.21L0.4 74.71L0.4 77.71ZM15 79.21L17.6 77.71L17.6 74.71L15 73.21L12.4 74.71L12.4 77.71ZM27 79.21L29.6 77.71L29.6 74.71L27 73.21L24.4 74.71L24.4 77.71ZM45 79.21L47.6 77.71L47.6 74.71L45 73.21L42.4 74.71L42.4 77.71ZM117 79.21L119.6 77.71L119.6 74.71L117 73.21L114.4 74.71L114.4 77.71ZM123 79.21L125.6 77.71L125.6 74.71L123 73.21L120.4 74.71L120.4 77.71ZM129 79.21L131.6 77.71L131.6 74.71L129 73.21L126.4 74.71L126.4 77.71ZM135 79.21L137.6 77.71L137.6 74.71L135 73.21L132.4 74.71L132.4 77.71ZM147 79.21L149.6 77.71L149.6 74.71L147 73.21L144.4 74.71L144.4 77.71ZM159 79.21L161.6 77.71L161.6 74.71L159 73.21L156.4 74.71L156.4 77.71ZM171 79.21L173.6 77.71L173.6 74.71L171 73.21L168.4 74.71L168.4 77.71ZM12 84.4L14.6 82.9L14.6 79.9L12 78.4L9.4 79.9L9.4 82.9ZM24 84.4L26.6 82.9L26.6 79.9L24 78.4L21.4 79.9L21.4 82.9ZM36 84.4L38.6 82.9L38.6 79.9L36 78.4L33.4 79.9L33.4 82.9ZM42 84.4L44.6 82.9L44.6 79.9L42 78.4L39.4 79.9L39.4 82.9ZM48 84.4L50.6 82.9L50.6 79.9L48 78.4L45.4 79.9L45.4 82.9ZM120 84.4L122.6 82.9L122.6 79.9L120 78.4L117.4 79.9L117.4 82.9ZM126 84.4L128.6 82.9L128.6 79.9L126 78.4L123.4 79.9L123.4 82.9ZM132 84.4L134.6 82.9L134.6 79.9L132 78.4L129.4 79.9L129.4 82.9ZM144 84.4L146.6 82.9L146.6 79.9L144 78.4L141.4 79.9L141.4 82.9ZM156 84.4L158.6 82.9L158.6 79.9L156 78.4L153.4 79.9L153.4 82.9ZM168 84.4L170.6 82.9L170.6 79.9L168 78.4L165.4 79.9L165.4 82.9ZM39 89.6L41.6 88.1L41.6 85.1L39 83.6L36.4 85.1L36.4 88.1ZM51 89.6L53.6 88.1L53.6 85.1L51 83.6L48.4 85.1L48.4 88.1ZM123 89.6L125.6 88.1L125.6 85.1L123 83.6L120.4 85.1L120.4 88.1ZM177 89.6L179.6 88.1L179.6 85.1L177 83.6L174.4 85.1L174.4 88.1ZM6 94.8L8.6 93.3L8.6 90.3L6 88.8L3.4 90.3L3.4 93.3ZM18 94.8L20.6 93.3L20.6 90.3L18 88.8L15.4 90.3L15.4 93.3ZM30 94.8L32.6 93.3L32.6 90.3L30 88.8L27.4 90.3L27.4 93.3ZM54 94.8L56.6 93.3L56.6 90.3L54 88.8L51.4 90.3L51.4 93.3ZM120 94.8L122.6 93.3L122.6 90.3L120 88.8L117.4 90.3L117.4 93.3ZM126 94.8L128.6 93.3L128.6 90.3L126 88.8L123.4 90.3L123.4 93.3ZM138 94.8L140.6 93.3L140.6 90.3L138 88.8L135.4 90.3L135.4 93.3ZM150 94.8L152.6 93.3L152.6 90.3L150 88.8L147.4 90.3L147.4 93.3ZM162 94.8L164.6 93.3L164.6 90.3L162 88.8L159.4 90.3L159.4 93.3ZM9 99.99L11.6 98.49L11.6 95.49L9 93.99L6.4 95.49L6.4 98.49ZM21 99.99L23.6 98.49L23.6 95.49L21 93.99L18.4 95.49L18.4 98.49ZM33 99.99L35.6 98.49L35.6 95.49L33 93.99L30.4 95.49L30.4 98.49ZM39 99.99L41.6 98.49L41.6 95.49L39 93.99L36.4 95.49L36.4 98.49ZM51 99.99L53.6 98.49L53.6 95.49L51 93.99L48.4 95.49L48.4 98.49ZM57 99.99L59.6 98.49L59.6 95.49L57 93.99L54.4 95.49L54.4 98.49ZM117 99.99L119.6 98.49L119.6 95.49L117 93.99L114.4 95.49L114.4 98.49ZM141 99.99L143.6 98.49L143.6 95.49L141 93.99L138.4 95.49L138.4 98.49ZM153 99.99L155.6 98.49L155.6 95.49L153 93.99L150.4 95.49L150.4 98.49ZM165 99.99L167.6 98.49L167.6 95.49L165 93.99L162.4 95.49L162.4 98.49ZM171 99.99L173.6 98.49L173.6 95.49L171 93.99L168.4 95.49L168.4 98.49ZM177 99.99L179.6 98.49L179.6 95.49L177 93.99L174.4 95.49L174.4 98.49ZM174 105.19L176.6 103.69L176.6 100.69L174 99.19L171.4 100.69L171.4 103.69ZM3 110.38L5.6 108.88L5.6 105.88L3 104.38L0.4 105.88L0.4 108.88ZM15 110.38L17.6 108.88L17.6 105.88L15 104.38L12.4 105.88L12.4 108.88ZM27 110.38L29.6 108.88L29.6 105.88L27 104.38L24.4 105.88L24.4 108.88ZM45 110.38L47.6 108.88L47.6 105.88L45 104.38L42.4 105.88L42.4 108.88ZM51 110.38L53.6 108.88L53.6 105.88L51 104.38L48.4 105.88L48.4 108.88ZM63 110.38L65.6 108.88L65.6 105.88L63 104.38L60.4 105.88L60.4 108.88ZM111 110.38L113.6 108.88L113.6 105.88L111 104.38L108.4 105.88L108.4 108.88ZM117 110.38L119.6 108.88L119.6 105.88L117 104.38L114.4 105.88L114.4 108.88ZM129 110.38L131.6 108.88L131.6 105.88L129 104.38L126.4 105.88L126.4 108.88ZM135 110.38L137.6 108.88L137.6 105.88L135 104.38L132.4 105.88L132.4 108.88ZM147 110.38L149.6 108.88L149.6 105.88L147 104.38L144.4 105.88L144.4 108.88ZM159 110.38L161.6 108.88L161.6 105.88L159 104.38L156.4 105.88L156.4 108.88ZM12 115.58L14.6 114.08L14.6 111.08L12 109.58L9.4 111.08L9.4 114.08ZM24 115.58L26.6 114.08L26.6 111.08L24 109.58L21.4 111.08L21.4 114.08ZM36 115.58L38.6 114.08L38.6 111.08L36 109.58L33.4 111.08L33.4 114.08ZM48 115.58L50.6 114.08L50.6 111.08L48 109.58L45.4 111.08L45.4 114.08ZM60 115.58L62.6 114.08L62.6 111.08L60 109.58L57.4 111.08L57.4 114.08ZM66 115.58L68.6 114.08L68.6 111.08L66 109.58L63.4 111.08L63.4 114.08ZM108 115.58L110.6 114.08L110.6 111.08L108 109.58L105.4 111.08L105.4 114.08ZM114 115.58L116.6 114.08L116.6 111.08L114 109.58L111.4 111.08L111.4 114.08ZM126 115.58L128.6 114.08L128.6 111.08L126 109.58L123.4 111.08L123.4 114.08ZM144 115.58L146.6 114.08L146.6 111.08L144 109.58L141.4 111.08L141.4 114.08ZM156 115.58L158.6 114.08L158.6 111.08L156 109.58L153.4 111.08L153.4 114.08ZM168 115.58L170.6 114.08L170.6 111.08L168 109.58L165.4 111.08L165.4 114.08ZM51 120.78L53.6 119.28L53.6 116.28L51 114.78L48.4 116.28L48.4 119.28ZM63 120.78L65.6 119.28L65.6 116.28L63 114.78L60.4 116.28L60.4 119.28ZM75 120.78L77.6 119.28L77.6 116.28L75 114.78L72.4 116.28L72.4 119.28ZM81 120.78L83.6 119.28L83.6 116.28L81 114.78L78.4 116.28L78.4 119.28ZM93 120.78L95.6 119.28L95.6 116.28L93 114.78L90.4 116.28L90.4 119.28ZM99 120.78L101.6 119.28L101.6 116.28L99 114.78L96.4 116.28L96.4 119.28ZM105 120.78L107.6 119.28L107.6 116.28L105 114.78L102.4 116.28L102.4 119.28ZM111 120.78L113.6 119.28L113.6 116.28L111 114.78L108.4 116.28L108.4 119.28ZM123 120.78L125.6 119.28L125.6 116.28L123 114.78L120.4 116.28L120.4 119.28ZM177 120.78L179.6 119.28L179.6 116.28L177 114.78L174.4 116.28L174.4 119.28ZM6 125.97L8.6 124.47L8.6 121.47L6 119.97L3.4 121.47L3.4 124.47ZM18 125.97L20.6 124.47L20.6 121.47L18 119.97L15.4 121.47L15.4 124.47ZM30 125.97L32.6 124.47L32.6 121.47L30 119.97L27.4 121.47L27.4 124.47ZM42 125.97L44.6 124.47L44.6 121.47L42 119.97L39.4 121.47L39.4 124.47ZM60 125.97L62.6 124.47L62.6 121.47L60 119.97L57.4 121.47L57.4 124.47ZM66 125.97L68.6 124.47L68.6 121.47L66 119.97L63.4 121.47L63.4 124.47ZM72 125.97L74.6 124.47L74.6 121.47L72 119.97L69.4 121.47L69.4 124.47ZM78 125.97L80.6 124.47L80.6 121.47L78 119.97L75.4 121.47L75.4 124.47ZM84 125.97L86.6 124.47L86.6 121.47L84 119.97L81.4 121.47L81.4 124.47ZM90 125.97L92.6 124.47L92.6 121.47L90 119.97L87.4 121.47L87.4 124.47ZM96 125.97L98.6 124.47L98.6 121.47L96 119.97L93.4 121.47L93.4 124.47ZM108 125.97L110.6 124.47L110.6 121.47L108 119.97L105.4 121.47L105.4 124.47ZM114 125.97L116.6 124.47L116.6 121.47L114 119.97L111.4 121.47L111.4 124.47ZM120 125.97L122.6 124.47L122.6 121.47L120 119.97L117.4 121.47L117.4 124.47ZM126 125.97L128.6 124.47L128.6 121.47L126 119.97L123.4 121.47L123.4 124.47ZM132 125.97L134.6 124.47L134.6 121.47L132 119.97L129.4 121.47L129.4 124.47ZM138 125.97L140.6 124.47L140.6 121.47L138 119.97L135.4 121.47L135.4 124.47ZM150 125.97L152.6 124.47L152.6 121.47L150 119.97L147.4 121.47L147.4 124.47ZM162 125.97L164.6 124.47L164.6 121.47L162 119.97L159.4 121.47L159.4 124.47ZM174 125.97L176.6 124.47L176.6 121.47L174 119.97L171.4 121.47L171.4 124.47ZM9 131.17L11.6 129.67L11.6 126.67L9 125.17L6.4 126.67L6.4 129.67ZM21 131.17L23.6 129.67L23.6 126.67L21 125.17L18.4 126.67L18.4 129.67ZM33 131.17L35.6 129.67L35.6 126.67L33 125.17L30.4 126.67L30.4 129.67ZM45 131.17L47.6 129.67L47.6 126.67L45 125.17L42.4 126.67L42.4 129.67ZM57 131.17L59.6 129.67L59.6 126.67L57 125.17L54.4 126.67L54.4 129.67ZM69 131.17L71.6 129.67L71.6 126.67L69 125.17L66.4 126.67L66.4 129.67ZM81 131.17L83.6 129.67L83.6 126.67L81 125.17L78.4 126.67L78.4 129.67ZM93 131.17L95.6 129.67L95.6 126.67L93 125.17L90.4 126.67L90.4 129.67ZM105 131.17L107.6 129.67L107.6 126.67L105 125.17L102.4 126.67L102.4 129.67ZM117 131.17L119.6 129.67L119.6 126.67L117 125.17L114.4 126.67L114.4 129.67ZM123 131.17L125.6 129.67L125.6 126.67L123 125.17L120.4 126.67L120.4 129.67ZM129 131.17L131.6 129.67L131.6 126.67L129 125.17L126.4 126.67L126.4 129.67ZM135 131.17L137.6 129.67L137.6 126.67L135 125.17L132.4 126.67L132.4 129.67ZM147 131.17L149.6 129.67L149.6 126.67L147 125.17L144.4 126.67L144.4 129.67ZM153 131.17L155.6 129.67L155.6 126.67L153 125.17L150.4 126.67L150.4 129.67ZM126 136.36L128.6 134.86L128.6 131.86L126 130.36L123.4 131.86L123.4 134.86ZM144 136.36L146.6 134.86L146.6 131.86L144 130.36L141.4 131.86L141.4 134.86ZM150 136.36L152.6 134.86L152.6 131.86L150 130.36L147.4 131.86L147.4 134.86ZM156 136.36L158.6 134.86L158.6 131.86L156 130.36L153.4 131.86L153.4 134.86ZM168 136.36L170.6 134.86L170.6 131.86L168 130.36L165.4 131.86L165.4 134.86ZM3 141.56L5.6 140.06L5.6 137.06L3 135.56L0.4 137.06L0.4 140.06ZM15 141.56L17.6 140.06L17.6 137.06L15 135.56L12.4 137.06L12.4 140.06ZM27 141.56L29.6 140.06L29.6 137.06L27 135.56L24.4 137.06L24.4 140.06ZM39 141.56L41.6 140.06L41.6 137.06L39 135.56L36.4 137.06L36.4 140.06ZM51 141.56L53.6 140.06L53.6 137.06L51 135.56L48.4 137.06L48.4 140.06ZM63 141.56L65.6 140.06L65.6 137.06L63 135.56L60.4 137.06L60.4 140.06ZM75 141.56L77.6 140.06L77.6 137.06L75 135.56L72.4 137.06L72.4 140.06ZM87 141.56L89.6 140.06L89.6 137.06L87 135.56L84.4 137.06L84.4 140.06ZM99 141.56L101.6 140.06L101.6 137.06L99 135.56L96.4 137.06L96.4 140.06ZM111 141.56L113.6 140.06L113.6 137.06L111 135.56L108.4 137.06L108.4 140.06ZM135 141.56L137.6 140.06L137.6 137.06L135 135.56L132.4 137.06L132.4 140.06ZM147 141.56L149.6 140.06L149.6 137.06L147 135.56L144.4 137.06L144.4 140.06ZM177 141.56L179.6 140.06L179.6 137.06L177 135.56L174.4 137.06L174.4 140.06ZM6 146.76L8.6 145.26L8.6 142.26L6 140.76L3.4 142.26L3.4 145.26ZM12 146.76L14.6 145.26L14.6 142.26L12 140.76L9.4 142.26L9.4 145.26ZM18 146.76L20.6 145.26L20.6 142.26L18 140.76L15.4 142.26L15.4 145.26ZM30 146.76L32.6 145.26L32.6 142.26L30 140.76L27.4 142.26L27.4 145.26ZM60 146.76L62.6 145.26L62.6 142.26L60 140.76L57.4 142.26L57.4 145.26ZM66 146.76L68.6 145.26L68.6 142.26L66 140.76L63.4 142.26L63.4 145.26ZM78 146.76L80.6 145.26L80.6 142.26L78 140.76L75.4 142.26L75.4 145.26ZM84 146.76L86.6 145.26L86.6 142.26L84 140.76L81.4 142.26L81.4 145.26ZM96 146.76L98.6 145.26L98.6 142.26L96 140.76L93.4 142.26L93.4 145.26ZM108 146.76L110.6 145.26L110.6 142.26L108 140.76L105.4 142.26L105.4 145.26ZM120 146.76L122.6 145.26L122.6 142.26L120 140.76L117.4 142.26L117.4 145.26ZM126 146.76L128.6 145.26L128.6 142.26L126 140.76L123.4 142.26L123.4 145.26ZM132 146.76L134.6 145.26L134.6 142.26L132 140.76L129.4 142.26L129.4 145.26ZM144 146.76L146.6 145.26L146.6 142.26L144 140.76L141.4 142.26L141.4 145.26ZM150 146.76L152.6 145.26L152.6 142.26L150 140.76L147.4 142.26L147.4 145.26ZM168 146.76L170.6 145.26L170.6 142.26L168 140.76L165.4 142.26L165.4 145.26ZM3 151.95L5.6 150.45L5.6 147.45L3 145.95L0.4 147.45L0.4 150.45ZM15 151.95L17.6 150.45L17.6 147.45L15 145.95L12.4 147.45L12.4 150.45ZM21 151.95L23.6 150.45L23.6 147.45L21 145.95L18.4 147.45L18.4 150.45ZM33 151.95L35.6 150.45L35.6 147.45L33 145.95L30.4 147.45L30.4 150.45ZM39 151.95L41.6 150.45L41.6 147.45L39 145.95L36.4 147.45L36.4 150.45ZM51 151.95L53.6 150.45L53.6 147.45L51 145.95L48.4 147.45L48.4 150.45ZM57 151.95L59.6 150.45L59.6 147.45L57 145.95L54.4 147.45L54.4 150.45ZM69 151.95L71.6 150.45L71.6 147.45L69 145.95L66.4 147.45L66.4 150.45ZM75 151.95L77.6 150.45L77.6 147.45L75 145.95L72.4 147.45L72.4 150.45ZM87 151.95L89.6 150.45L89.6 147.45L87 145.95L84.4 147.45L84.4 150.45ZM93 151.95L95.6 150.45L95.6 147.45L93 145.95L90.4 147.45L90.4 150.45ZM105 151.95L107.6 150.45L107.6 147.45L105 145.95L102.4 147.45L102.4 150.45ZM111 151.95L113.6 150.45L113.6 147.45L111 145.95L108.4 147.45L108.4 150.45ZM117 151.95L119.6 150.45L119.6 147.45L117 145.95L114.4 147.45L114.4 150.45ZM123 151.95L125.6 150.45L125.6 147.45L123 145.95L120.4 147.45L120.4 150.45ZM135 151.95L137.6 150.45L137.6 147.45L135 145.95L132.4 147.45L132.4 150.45ZM153 151.95L155.6 150.45L155.6 147.45L153 145.95L150.4 147.45L150.4 150.45ZM159 151.95L161.6 150.45L161.6 147.45L159 145.95L156.4 147.45L156.4 150.45ZM171 151.95L173.6 150.45L173.6 147.45L171 145.95L168.4 147.45L168.4 150.45ZM6 157.15L8.6 155.65L8.6 152.65L6 151.15L3.4 152.65L3.4 155.65ZM24 157.15L26.6 155.65L26.6 152.65L24 151.15L21.4 152.65L21.4 155.65ZM30 157.15L32.6 155.65L32.6 152.65L30 151.15L27.4 152.65L27.4 155.65ZM36 157.15L38.6 155.65L38.6 152.65L36 151.15L33.4 152.65L33.4 155.65ZM42 157.15L44.6 155.65L44.6 152.65L42 151.15L39.4 152.65L39.4 155.65ZM54 157.15L56.6 155.65L56.6 152.65L54 151.15L51.4 152.65L51.4 155.65ZM60 157.15L62.6 155.65L62.6 152.65L60 151.15L57.4 152.65L57.4 155.65ZM66 157.15L68.6 155.65L68.6 152.65L66 151.15L63.4 152.65L63.4 155.65ZM72 157.15L74.6 155.65L74.6 152.65L72 151.15L69.4 152.65L69.4 155.65ZM84 157.15L86.6 155.65L86.6 152.65L84 151.15L81.4 152.65L81.4 155.65ZM90 157.15L92.6 155.65L92.6 152.65L90 151.15L87.4 152.65L87.4 155.65ZM108 157.15L110.6 155.65L110.6 152.65L108 151.15L105.4 152.65L105.4 155.65ZM114 157.15L116.6 155.65L116.6 152.65L114 151.15L111.4 152.65L111.4 155.65ZM120 157.15L122.6 155.65L122.6 152.65L120 151.15L117.4 152.65L117.4 155.65ZM132 157.15L134.6 155.65L134.6 152.65L132 151.15L129.4 152.65L129.4 155.65ZM138 157.15L140.6 155.65L140.6 152.65L138 151.15L135.4 152.65L135.4 155.65ZM150 157.15L152.6 155.65L152.6 152.65L150 151.15L147.4 152.65L147.4 155.65ZM3 162.34L5.6 160.84L5.6 157.84L3 156.34L0.4 157.84L0.4 160.84ZM21 162.34L23.6 160.84L23.6 157.84L21 156.34L18.4 157.84L18.4 160.84ZM27 162.34L29.6 160.84L29.6 157.84L27 156.34L24.4 157.84L24.4 160.84ZM33 162.34L35.6 160.84L35.6 157.84L33 156.34L30.4 157.84L30.4 160.84ZM39 162.34L41.6 160.84L41.6 157.84L39 156.34L36.4 157.84L36.4 160.84ZM57 162.34L59.6 160.84L59.6 157.84L57 156.34L54.4 157.84L54.4 160.84ZM93 162.34L95.6 160.84L95.6 157.84L93 156.34L90.4 157.84L90.4 160.84ZM105 162.34L107.6 160.84L107.6 157.84L105 156.34L102.4 157.84L102.4 160.84ZM117 162.34L119.6 160.84L119.6 157.84L117 156.34L114.4 157.84L114.4 160.84ZM123 162.34L125.6 160.84L125.6 157.84L123 156.34L120.4 157.84L120.4 160.84ZM129 162.34L131.6 160.84L131.6 157.84L129 156.34L126.4 157.84L126.4 160.84ZM165 162.34L167.6 160.84L167.6 157.84L165 156.34L162.4 157.84L162.4 160.84ZM12 167.54L14.6 166.04L14.6 163.04L12 161.54L9.4 163.04L9.4 166.04ZM24 167.54L26.6 166.04L26.6 163.04L24 161.54L21.4 163.04L21.4 166.04ZM48 167.54L50.6 166.04L50.6 163.04L48 161.54L45.4 163.04L45.4 166.04ZM66 167.54L68.6 166.04L68.6 163.04L66 161.54L63.4 163.04L63.4 166.04ZM90 167.54L92.6 166.04L92.6 163.04L90 161.54L87.4 163.04L87.4 166.04ZM108 167.54L110.6 166.04L110.6 163.04L108 161.54L105.4 163.04L105.4 166.04ZM132 167.54L134.6 166.04L134.6 163.04L132 161.54L129.4 163.04L129.4 166.04ZM138 167.54L140.6 166.04L140.6 163.04L138 161.54L135.4 163.04L135.4 166.04ZM156 167.54L158.6 166.04L158.6 163.04L156 161.54L153.4 163.04L153.4 166.04ZM168 167.54L170.6 166.04L170.6 163.04L168 161.54L165.4 163.04L165.4 166.04ZM3 172.74L5.6 171.24L5.6 168.24L3 166.74L0.4 168.24L0.4 171.24ZM9 172.74L11.6 171.24L11.6 168.24L9 166.74L6.4 168.24L6.4 171.24ZM21 172.74L23.6 171.24L23.6 168.24L21 166.74L18.4 168.24L18.4 171.24ZM27 172.74L29.6 171.24L29.6 168.24L27 166.74L24.4 168.24L24.4 171.24ZM33 172.74L35.6 171.24L35.6 168.24L33 166.74L30.4 168.24L30.4 171.24ZM39 172.74L41.6 171.24L41.6 168.24L39 166.74L36.4 168.24L36.4 171.24ZM51 172.74L53.6 171.24L53.6 168.24L51 166.74L48.4 168.24L48.4 171.24ZM57 172.74L59.6 171.24L59.6 168.24L57 166.74L54.4 168.24L54.4 171.24ZM75 172.74L77.6 171.24L77.6 168.24L75 166.74L72.4 168.24L72.4 171.24ZM81 172.74L83.6 171.24L83.6 168.24L81 166.74L78.4 168.24L78.4 171.24ZM87 172.74L89.6 171.24L89.6 168.24L87 166.74L84.4 168.24L84.4 171.24ZM105 172.74L107.6 171.24L107.6 168.24L105 166.74L102.4 168.24L102.4 171.24ZM111 172.74L113.6 171.24L113.6 168.24L111 166.74L108.4 168.24L108.4 171.24ZM117 172.74L119.6 171.24L119.6 168.24L117 166.74L114.4 168.24L114.4 171.24ZM123 172.74L125.6 171.24L125.6 168.24L123 166.74L120.4 168.24L120.4 171.24ZM141 172.74L143.6 171.24L143.6 168.24L141 166.74L138.4 168.24L138.4 171.24ZM159 172.74L161.6 171.24L161.6 168.24L159 166.74L156.4 168.24L156.4 171.24ZM165 172.74L167.6 171.24L167.6 168.24L165 166.74L162.4 168.24L162.4 171.24ZM171 172.74L173.6 171.24L173.6 168.24L171 166.74L168.4 168.24L168.4 171.24ZM177 172.74L179.6 171.24L179.6 168.24L177 166.74L174.4 168.24L174.4 171.24Z"/>
  <circle cx="87" cy="86.6" r="24.646" stroke="#000000" stroke-width="4.707" fill="none"/>
  <circle cx="87" cy="86.6" r="15.232" stroke="#000000" stroke-width="4.707" fill="none"/>
  <circle cx="87" cy="86.6" r="5.818" stroke="#000000" stroke-width="4.707" fill="none"/>
  <text x="90" y="340.03" text-anchor="middle" font-family="Arimo, Arial, sans-serif" font-size="42">
   Secondary Message Here
  </text>
 </g>
</svg>
